<?xml version="1.0" standalone="no"?>
<!DOCTYPE svg PUBLIC "-//W3C//DTD SVG 1.1//EN" "http://www.w3.org/Graphics/SVG/1.1/DTD/svg11.dtd" >
<svg xmlns="http://www.w3.org/2000/svg">
<metadata></metadata>
<defs>
<font id="Mestra1(MemimaPautada)Regular" horiz-adv-x="585" >
<font-face units-per-em="1000" ascent="800" descent="-200" />
<missing-glyph horiz-adv-x="400" />
<glyph horiz-adv-x="0" />
<glyph horiz-adv-x="400" />
<glyph unicode=" " horiz-adv-x="400" d="M0 15h541v-15h-541v15zM1 275h539v-15h-539v15z" />
<glyph unicode="!" horiz-adv-x="178" d="M185 57q0 -18 -20 -18q-7 0 -13 5t-6 13q0 5 4.5 12.5t14.5 7.5q8 0 14 -6t6 -14zM174 132q0 -9 -10 -9t-10 9v491q0 9 10 9t10 -9v-491zM101 8h414v-6h-414v6zM106 265h411v-6h-411v6zM68 15h449v-15h-449v15zM69 275h447v-15h-447v15z" />
<glyph unicode="&#x22;" horiz-adv-x="213" d="M225 466q0 -9 -10 -9t-10 9v119q0 9 10 9t10 -9v-119zM155 464q0 -9 -10 -9t-10 9v121q0 9 10 9t10 -9v-121zM63 7h451v-6h-451v6zM64 265h448v-6h-448v6zM63 15h452v-15h-452v15zM64 275h450v-15h-450v15z" />
<glyph unicode="#" horiz-adv-x="474" d="M401 419q3 7 10 7q13 0 10 -13l-32 -115h86q9 0 9 -10t-9 -10h-90l-23 -80h113q9 0 9 -10q0 -11 -10 -11h-117l-26 -97q-1 -7 -10 -7q-13 0 -10 13l24 91h-98l-26 -97q-3 -6 -9 -6q-14 0 -11 12l25 92h-74q-9 0 -9 10t9 10h79l22 80h-101q-9 0 -9 10t9 10h106l33 121 q3 7 10 7q13 0 10 -13l-32 -115h99zM242 198h99l21 79h-98zM62 5h451v-6h-451v6zM63 265h448v-6h-448v6zM62 15h452v-15h-452v15zM63 275h450v-15h-450v15z" />
<glyph unicode="$" horiz-adv-x="647" d="M541 582q7 -5 1 -13t-13 -3q-38 29 -74.5 39.5t-90.5 10.5v-256q123 0 188 -41.5t65 -141.5q0 -56 -69.5 -122t-183.5 -66v-63q0 -9 -10 -9t-10 9v63q-112 0 -193 52.5t-81 134.5q0 9 10 9t10 -9q0 -70 74.5 -118.5t179.5 -48.5l-1 331h-15q-86 0 -147.5 28.5 t-61.5 101.5q0 77 64 121.5t151 44.5h9l1 32q0 9 10 9t10 -9l-1 -32q59 0 98 -11t80 -43zM597 177q0 90 -56.5 126.5t-176.5 36.5v-331q106 0 169.5 60.5t63.5 107.5zM334 616q-81 0 -138 -39.5t-57 -106.5q0 -59 54.5 -84.5t134.5 -25.5h15l1 256h-10zM30 6h678v-6h-678v6z M32 265h675v-6h-675v6zM31 15h674v-15h-674v15zM32 275h671v-15h-671v15z" />
<glyph unicode="%" horiz-adv-x="455" d="M444 468q4 7 12 1t4 -13l-311 -459q-4 -7 -12 -1t-4 13zM302 99q0 48 20 81.5t63 33.5q35 0 56 -31t21 -84q0 -44 -19.5 -75t-57.5 -31q-47 0 -65 31.5t-18 74.5zM131 357q0 48 20 81.5t63 33.5q35 0 56 -31t21 -84q0 -44 -19.5 -75t-57.5 -31q-47 0 -65 31.5t-18 74.5z M322 99q0 -38 13.5 -62t49.5 -24q26 0 41.5 23.5t15.5 62.5q0 47 -16 71t-41 24q-30 0 -46.5 -27.5t-16.5 -67.5zM151 357q0 -38 13.5 -62t49.5 -24q26 0 41.5 23.5t15.5 62.5q0 47 -16 71t-41 24q-30 0 -46.5 -27.5t-16.5 -67.5zM61 7h496v-6h-496v6zM61 265h493v-6h-493v6 zM60 15h499v-15h-499v15zM61 275h497v-15h-497v15z" />
<glyph unicode="&#x26;" horiz-adv-x="579" d="M534 10q7 0 7 -7q0 -13 -11 -13q-25 7 -54 30t-43 40q-32 -31 -73.5 -50.5t-85.5 -19.5q-76 0 -133.5 28t-71 62.5t-15.5 46.5t-2 24q0 52 31.5 98.5t72.5 70.5l66 36q-18 37 -29 70.5t-11 54.5q0 37 19.5 72t74.5 35q47 0 71 -29.5t24 -70.5q0 -30 -38 -69 q-41 -35 -82 -69q33 -61 84 -134t98 -126q19 25 29 48t10 44q0 9 10 9t10 -9q0 -24 -12.5 -53.5t-33.5 -55.5q30 -29 51 -44.5t37 -18.5zM166 302q-35 -20 -65 -64t-30 -89q0 -20 7 -35q20 -53 72 -78.5t124 -25.5q40 0 77.5 18t67.5 47q-46 51 -98 126t-89 138zM276 568 q-42 0 -58 -28t-16 -59q0 -35 38 -113q41 25 76 63.5t35 56.5q0 36 -17.5 58t-57.5 22zM19 7h670v-6h-670v6zM27 265h665v-6h-665v6zM24 15h666v-15h-666v15zM25 275h664v-15h-664v15z" />
<glyph unicode="'" horiz-adv-x="220" d="M158 472q-5 -7 -13 -1t-3 13q23 32 36.5 56t28.5 59q1 5 7 5q5 0 9 -4t2 -9q-14 -33 -28.5 -59t-38.5 -60zM127 5h404v-6h-404v6zM128 265h401v-6h-401v6zM64 15h466v-15h-466v15zM65 275h464v-15h-464v15z" />
<glyph unicode="(" horiz-adv-x="280" d="M300 -132q2 -3 0 -9.5t-9 -6.5q-4 0 -26 28.5t-44.5 129t-22.5 219.5q0 115 21 209.5t65 153.5q5 7 13 1t3 -13q-40 -52 -61 -146.5t-21 -203.5q0 -117 21.5 -215.5t60.5 -146.5zM92 7h451v-6h-451v6zM98 265h448v-6h-448v6zM97 15h450v-15h-450v15zM98 275h448v-15h-448 v15z" />
<glyph unicode=")" horiz-adv-x="280" d="M198 -144q-6 -7 -14 -1t-2 13q37 46 59.5 147.5t22.5 214.5q0 109 -21 203.5t-61 146.5q-2 3 0 9.5t9 6.5q4 0 26.5 -30.5t44.5 -128t22 -209.5q0 -118 -22.5 -218.5t-63.5 -153.5zM82 9h451v-6h-451v6zM86 265h448v-6h-448v6zM85 15h452v-15h-452v15zM86 275h450v-15 h-450v15z" />
<glyph unicode="*" horiz-adv-x="302" d="M82 434q-9 0 -9 10t9 10h84l-44 43q-7 6 0 13t14 1l44 -43v88q0 9 10 9t10 -9v-86l43 42q6 6 13 -1t1 -13l-45 -44h92q9 0 9 -10t-9 -10h-90l49 -48q7 -6 0 -13t-14 -1l-49 48v-89q0 -9 -10 -9t-10 9v91l-46 -45q-6 -6 -13 1t-1 13l44 43h-82zM31 6h451v-6h-451v6z M34 265h448v-6h-448v6zM33 15h450v-15h-450v15zM34 275h448v-15h-448v15z" />
<glyph unicode="+" horiz-adv-x="300" d="M204 210q0 9 10 9t10 -9v-65h66q9 0 9 -10t-9 -10h-66v-65q0 -9 -10 -9t-10 9v65h-62q-9 0 -9 10t9 10h62v65zM62 6h451v-6h-451v6zM63 265h448v-6h-448v6zM62 15h450v-15h-450v15zM63 275h448v-15h-448v15z" />
<glyph unicode="," horiz-adv-x="162" d="M152 28q2 6 8 6q3 0 8 -3.5t2 -10.5q-14 -35 -23.5 -53t-18.5 -31t-14 -13t-8 4.5t0 10.5q27 43 46 90zM46 6h451v-6h-451v6zM49 265h448v-6h-448v6zM48 15h449v-15h-449v15zM49 275h447v-15h-447v15z" />
<glyph unicode="-" horiz-adv-x="300" d="M217 138h80q9 0 9 -10t-9 -10h-80h-72q-9 0 -9 10t9 10h72zM62 6h451v-6h-451v6zM66 265h448v-6h-448v6zM65 15h449v-15h-449v15zM66 275h447v-15h-447v15z" />
<glyph unicode="." horiz-adv-x="150" d="M187 40q0 -18 -20 -18q-7 0 -13 5t-6 13q0 5 4.5 12.5t14.5 7.5q8 0 14 -6t6 -14zM56 6h619v-6h-619v6zM57 265h615v-6h-615v6zM83 15h589v-15h-589v15zM84 275h587v-15h-587v15z" />
<glyph unicode="/" d="M584 636q4 7 12 1t4 -13l-445 -655q-4 -7 -12 -1t-4 13zM63 5h595v-6h-595v6zM64 265h592v-6h-592v6zM63 15h593v-15h-593v15zM64 275h591v-15h-591v15z" />
<glyph unicode="0" d="M66 297q0 141 59.5 239.5t178.5 98.5q98 0 158 -90.5t60 -246.5q0 -135 -55 -223.5t-161 -88.5q-136 0 -188 92t-52 219zM86 297q0 -124 47 -207.5t173 -83.5q93 0 144.5 82.5t51.5 209.5q0 150 -55.5 233.5t-142.5 83.5q-107 0 -162.5 -91.5t-55.5 -226.5zM18 8h675v-6 h-675v6zM17 265h673v-6h-673v6zM18 15h673v-15h-673v15zM19 275h671v-15h-671v15z" />
<glyph unicode="1" d="M476 630q3 5 10.5 2t7.5 -9q0 -92 -0.5 -190.5t-1.5 -233.5t-1 -202q0 -9 -10 -9t-10 9l1 592q-61 -90 -114 -139q-68 -56 -116 -98q-7 -5 -14 3t0 13q61 51 123 103q54 51 125 159zM121 6h645v-6h-645v6zM121 265h644v-6h-644v6zM106 15h657v-15h-657v15zM107 275h655 v-15h-655v15zM106 15h657v-15h-657v15zM107 275h655v-15h-655v15z" />
<glyph unicode="2" d="M445 574q21 -21 31.5 -49t10.5 -58q0 -55 -30.5 -110t-93 -97.5t-129 -110t-91.5 -123.5q30 17 55 24.5t48 7.5q28 0 55 -12q24 -13 53 -25t66 -12q34 0 60 16.5t60 50.5q6 7 13 0t1 -14q-34 -36 -65 -54.5t-72 -18.5q-23 0 -44.5 5t-51.5 19q-19 12 -37.5 19t-35.5 7 q-24 0 -52 -10t-65 -35q-5 -3 -10.5 0.5t-5.5 9.5q16 64 88 141.5t140.5 124t96 97.5t27.5 103q0 55 -31 85.5t-62 44t-62 13.5q-64 0 -115.5 -44.5t-51.5 -103.5q0 -13 -9 -13q-11 0 -11 11q7 71 61 120t125 49q36 0 69 -13.5t65 -44.5zM43 6h643v-6h-643v6zM44 265h639v-6 h-639v6zM46 15h638v-15h-638v15zM47 275h636v-15h-636v15z" />
<glyph unicode="3" d="M248 309q-11 0 -11 11q0 9 9 9q87 0 167 47t80 107q0 13 -4 24q-14 55 -52 82.5t-86 27.5q-47 0 -88.5 -21t-54.5 -42t-18 -21t-8 4.5t0 10.5q25 41 71 65t98 24q54 0 97 -30.5t53.5 -69t10.5 -50.5q0 -43 -28 -76t-79 -59q64 -21 96.5 -72.5t32.5 -109.5q0 -53 -30 -93 t-80 -64.5t-102 -24.5q-44 0 -79.5 17.5t-58.5 52.5q-3 5 1 10t9 5t15 -17t41 -32.5t72 -15.5q49 0 94 22t72 57.5t27 82.5q0 57 -34 105.5t-101 62.5h-4q-33 -14 -65.5 -21.5t-62.5 -7.5zM87 7h633v-6h-633v6zM88 265h630v-6h-630v6zM88 15h630v-15h-630v15zM89 275h628 v-15h-628v15z" />
<glyph unicode="4" d="M433 298q0 9 9 9q11 0 11 -11q0 -21 -3 -57t-3 -51q24 0 42 6.5t43 18.5q13 6 13 -10q0 -5 -16.5 -13.5t-39 -15.5t-43.5 -7q0 -23 -5 -79.5t-5 -88.5q0 -9 -9 -9q-11 0 -11 11q0 38 4.5 94t4.5 72q-40 0 -128.5 18t-89.5 17q-14 -29 -33.5 -48t-39.5 -19q-6 0 -12 3 q-16 12 -16 29q0 12 6 21t14 17.5t26.5 14.5t35.5 6h9q5 11 17 39t27 67.5t51 155t42 133.5q0 7 7 7q5 0 9 -4t4 -9q-2 -5 -39 -124t-60 -176.5t-38 -92.5q27 -5 96.5 -20t111.5 -15q0 14 4 55t4 56zM132 156q10 -5 25.5 9.5t29.5 39.5q-6 2 -10 2q-9 0 -19 -5t-20 -12 q-4 -5 -7 -10t-3 -12t4 -12zM49 6h621v-6h-621v6zM41 265h619v-6h-619v6zM42 15h624v-15h-624v15zM44 275h621v-15h-621v15z" />
<glyph unicode="5" d="M190 605q-5 -35 -8 -123t-13 -125q55 13 107 13q98 0 155 -52t57 -158q0 -74 -63 -124t-147 -50q-46 0 -87.5 15.5t-77.5 50.5q-7 6 0 13t14 1q32 -31 70 -45.5t80 -14.5q77 0 134 44.5t57 109.5q0 98 -48.5 144t-140.5 46q-54 0 -124 -17q-11 0 -11 14q16 38 21 101.5 t5 162.5q0 16 12 16q12 -1 48.5 -5t82.5 -4q35 0 67.5 2t67.5 9q11 0 11 -13q0 -7 -7 -7q-32 -6 -72 -9t-69 -3q-37 0 -74.5 3.5t-46.5 4.5zM44 6h665v-6h-665v6zM45 265h661v-6h-661v6zM44 15h660v-15h-660v15zM46 275h657v-15h-657v15z" />
<glyph unicode="6" d="M542 222q4 -17 4 -39q0 -75 -60 -137t-134 -62q-112 0 -184 84t-72 205q0 161 88 260.5t200 99.5q9 0 9 -10t-9 -10q-103 0 -185.5 -92t-82.5 -248q0 -61 18 -108q14 72 74 131t143 59q76 0 126 -39t65 -94zM522 216q-13 47 -58 83t-113 36q-81 0 -140.5 -70t-59.5 -134 q30 -60 81.5 -93.5t119.5 -33.5q65 0 120 56t55 123q0 15 -5 33zM16 8h686v-6h-686v6zM19 265h682v-6h-682v6zM19 15h679v-15h-679v15zM21 275h676v-15h-676v15z" />
<glyph unicode="7" d="M399 607q-26 -4 -45.5 -6t-45.5 -2q-24 0 -52.5 3t-54.5 6.5t-38 3.5q-25 0 -47 -9.5t-45 -35.5q-6 -7 -13 0t-1 14q26 29 52.5 40.5t55.5 11.5q16 0 41 -4t52.5 -7t51.5 -3q26 0 50.5 3t71.5 11q7 0 10 -7t-2 -11q-72 -52 -98 -126.5t-38 -185.5q12 0 28 -4t19 -4 q16 -2 28 -2q10 1 22 1q9 0 9 -10t-9 -10q-14 -1 -24 -1l-27 2q-11 0 -25.5 3t-23.5 5l-27 -282q0 -9 -9 -9q-11 0 -11 11l28 282l-27 1q-21 0 -32 -2.5t-41 -15.5q-14 -5 -14 10q0 5 16.5 12.5t34 11.5t35.5 4h30q11 101 33.5 173t81.5 128zM21 7h635v-6h-635v6zM22 265 h631v-6h-631v6zM21 15h632v-15h-632v15zM22 275h630v-15h-630v15z" />
<glyph unicode="8" d="M459 177q0 -78 -59 -133t-138 -55q-12 0 -48.5 3.5t-83 44t-51.5 76.5t-5 48q0 53 33 94.5t86 64.5q-48 12 -79 42.5t-34.5 59t-3.5 39.5q0 72 58.5 122.5t135.5 50.5q61 0 109.5 -36t48.5 -96v-8q0 -47 -26 -91t-71 -70q57 -12 92.5 -52t35.5 -104zM296 338 q49 16 80.5 61t31.5 93v12q-4 49 -44 79.5t-96 30.5q-67 0 -119.5 -45.5t-52.5 -107.5q0 -10 3.5 -38.5t40 -56t93.5 -33.5q11 3 29.5 4t33.5 1zM258 312l-24 1q-58 -14 -99 -56t-41 -94q0 -12 4 -44t45 -67.5t75 -39t46 -3.5q69 0 122 50t53 118q0 65 -37.5 99.5 t-103.5 41.5q-8 0 -21 -3t-19 -3zM16 7h672v-6h-672v6zM16 265h667v-6h-667v6zM16 15h666v-15h-666v15zM18 275h663v-15h-663v15z" />
<glyph unicode="9" d="M154 28q-4 5 -0.5 10.5t8.5 5.5t14.5 -11.5t29.5 -20t44 -8.5q29 0 55.5 10t60 34t51.5 83t18 140q0 40 -3 74t-9 85q-20 -58 -67.5 -96t-93.5 -38q-56 0 -99.5 23t-59 60t-15.5 67q0 55 30 106t75.5 69.5t82.5 18.5q54 0 93 -29t54 -71q15 -72 23.5 -145t8.5 -120 q0 -87 -19 -150t-55.5 -90t-67 -39t-63.5 -12q-27 0 -51.5 10.5t-44.5 33.5zM117 397q18 -40 55.5 -60.5t89.5 -20.5q50 0 100.5 56.5t50.5 129.5q-8 55 -44 87.5t-91 32.5q-34 0 -74.5 -16.5t-68 -64.5t-27.5 -97q0 -26 9 -47zM39 6h650v-6h-650v6zM42 265h645v-6h-645v6z M40 15h645v-15h-645v15zM41 275h643v-15h-643v15z" />
<glyph unicode=":" horiz-adv-x="150" d="M155 26q0 -18 -20 -18q-7 0 -13 5t-6 13q0 5 4.5 12.5t14.5 7.5q8 0 14 -6t6 -14zM155 218q0 -18 -20 -18q-7 0 -13 5t-6 13q0 5 4.5 12.5t14.5 7.5q8 0 14 -6t6 -14zM53 6h451v-6h-451v6zM55 265h448v-6h-448v6zM54 15h451v-15h-451v15zM55 275h450v-15h-450v15z" />
<glyph unicode=";" horiz-adv-x="158" d="M173 208q0 -18 -20 -18q-7 0 -13 5t-6 13q0 5 4.5 12.5t14.5 7.5q8 0 14 -6t6 -14zM144 12q3 6 9 6q14 0 9 -14q-8 -19 -18 -37t-26 -40q-5 -7 -13 -1t-3 13q27 39 42 73zM44 6h451v-6h-451v6zM45 265h448v-6h-448v6zM44 15h452v-15h-452v15zM45 275h450v-15h-450v15z " />
<glyph unicode="&#x3c;" horiz-adv-x="210" d="M128 97l93 -94q6 -6 -1 -13t-13 -1l-100 101v14l98 98q7 7 14 0t0 -14zM49 8h451v-6h-451v6zM50 265h448v-6h-448v6zM49 15h452v-15h-452v15zM50 275h450v-15h-450v15z" />
<glyph unicode="=" horiz-adv-x="300" d="M214 58h76q9 0 9 -10t-9 -10h-76h-72q-9 0 -9 10t9 10h72zM214 138h76q9 0 9 -10t-9 -10h-76h-72q-9 0 -9 10t9 10h72zM62 5h451v-6h-451v6zM63 265h448v-6h-448v6zM62 15h452v-15h-452v15zM63 275h450v-15h-450v15z" />
<glyph unicode="&#x3e;" horiz-adv-x="210" d="M211 104v-14l-100 -101q-6 -7 -13 0t-1 14l93 94l-91 91q-6 7 1 14t13 0zM43 7h451v-6h-451v6zM42 265h448v-6h-448v6zM41 15h456v-15h-456v15zM42 275h454v-15h-454v15z" />
<glyph unicode="?" horiz-adv-x="426" d="M277 48q0 -18 -20 -18q-7 0 -13 5t-6 13q0 5 4.5 12.5t14.5 7.5q8 0 14 -6t6 -14zM293 631q62 0 102 -40t40 -108q0 -67 -76.5 -138t-87.5 -89t-18.5 -44.5t-7.5 -64.5v-22q0 -9 -10 -9q-9 0 -9 9q-1 17 -1 29q0 28 6 56t23 54.5t89 94.5t72 124q0 60 -34 94t-88 34 q-57 0 -98.5 -36.5t-41.5 -91.5q0 -9 -10 -9t-10 9q0 64 47 106t113 42zM62 10h451v-6h-451v6zM63 265h448v-6h-448v6zM62 15h453v-15h-453v15zM63 275h451v-15h-451v15z" />
<glyph unicode="@" horiz-adv-x="510" d="M200 67q-33 0 -58 16.5t-25 46.5q0 9 11 48.5t89 84t168 44.5q10 0 10 -13l-40 -151q-7 -31 -7 -45q0 -11 6 -14q36 0 64.5 25.5t56.5 68.5q15 28 15 59q0 48 -36 81t-117 33q-84 0 -155 -49t-90 -100t-19 -71q0 -49 42.5 -82t102.5 -33q19 0 39.5 4t40.5 13q13 6 13 -11 q0 -6 -5 -7q-44 -19 -90 -19q-67 0 -115 37.5t-48 95.5q0 22 21 79.5t96 110t167 52.5q88 0 130.5 -40.5t42.5 -96.5q0 -37 -24.5 -75.5t-56 -67t-77.5 -28.5q-31 3 -31 37q0 14 6 32q-28 -30 -63 -47.5t-64 -17.5zM140 144q-3 -9 -3 -16q0 -20 17 -30.5t46 -10.5 q28 0 83.5 38t61.5 65l28 97q-79 0 -149 -43t-84 -100zM22 4h549v-6h-549v6zM23 265h547v-6h-547v6zM22 15h549v-15h-549v15zM23 275h547v-15h-547v15z" />
<glyph unicode="A" horiz-adv-x="785" d="M695 10q33 0 60.5 28t60.5 79q4 7 12 1t4 -13q-41 -61 -67.5 -88t-69.5 -27q-50 0 -68 43t-18 105v141q-39 -130 -145 -210t-214 -80q-64 0 -122.5 49t-58.5 172q0 90 54 174t140 146.5t166 81.5t190 19q10 0 10 -10v-483q0 -57 15 -92.5t51 -35.5zM283 520 q-91 -65 -142.5 -145t-51.5 -165q0 -117 50 -159t111 -42q125 0 242.5 113.5t117.5 284.5v204q-103 0 -177.5 -18.5t-149.5 -72.5zM30 5h805v-6h-805v6zM31 265h803v-6h-803v6zM30 15h804v-15h-804v15zM31 275h802v-15h-802v15z" />
<glyph unicode="B" horiz-adv-x="577" d="M546 180q0 -82 -65.5 -139t-129.5 -57q-94 0 -127.5 22t-78.5 74q-6 6 1 13t13 1q55 -59 78 -74.5t114 -15.5q53 0 114 53.5t61 122.5q0 46 -29 97.5t-55 64.5q-26 -20 -56.5 -33.5t-44.5 -13.5h-12q-27 0 -45.5 6.5t-21.5 28.5q0 31 22 44.5t51 13.5q26 0 51.5 -6.5 t51.5 -17.5q23 26 36 50t13 54q0 63 -47.5 106t-125.5 43q-73 0 -133 -66t-91 -182l-1 -4v-353q0 -9 -10 -9t-10 9v605q0 9 10 9t10 -9v-185q37 95 95.5 150t129.5 55q85 0 139 -48.5t54 -120.5q0 -27 -9 -50.5t-40 -60.5q25 -14 56.5 -71.5t31.5 -105.5zM282 331 q4 -9 19.5 -12.5t39.5 -3.5q11 0 33.5 9.5t46.5 26.5q-37 17 -86 17q-25 0 -39 -8t-14 -29zM30 8h533v-6h-533v6zM31 265h531v-6h-531v6zM30 15h532v-15h-532v15zM31 275h530v-15h-530v15z" />
<glyph unicode="C" horiz-adv-x="560" d="M318 614q-81 0 -136 -27t-98.5 -82t-58.5 -100t-15 -105q0 -84 24.5 -142t73 -91.5t100.5 -45.5t105 -12q96 0 144.5 19t73 56t29.5 37t8 -4.5t0 -10.5q-46 -73 -102.5 -95t-152.5 -22q-56 0 -110 12t-106 48t-79.5 101.5t-27.5 149.5q0 63 16 111.5t61 106t105.5 87 t145.5 29.5q53 0 93 -15t80 -53q7 -6 0 -13t-14 -1q-39 36 -74 49t-85 13zM-9 10h607v-6h-607v6zM-8 265h604v-6h-604v6zM-9 15h604v-15h-604v15zM-8 275h602v-15h-602v15z" />
<glyph unicode="D" horiz-adv-x="700" d="M433 9q82 0 149.5 95.5t67.5 206.5q0 139 -80.5 221.5t-196.5 82.5q-104 0 -177.5 -56.5t-91.5 -106t-23 -49.5q-14 0 -10 13q32 97 111.5 158t190.5 61q123 0 210 -89t87 -235q0 -118 -71.5 -220t-165.5 -102q-25 0 -40 5t-77 35l-39 21q-19 -26 -44.5 -43.5 t-44.5 -17.5q-33 0 -49.5 10.5t-20.5 29.5q-4 29 18.5 46t51.5 17q22 0 41 -4t37 -11q10 19 16 36t6 35q3 27 3 52q0 29 -7.5 110t-7.5 119q0 43 11.5 79.5t37.5 57.5q3 2 9.5 0t6.5 -9q0 -4 -12 -13.5t-22.5 -42t-10.5 -72.5q0 -41 7.5 -120t7.5 -111q0 -25 -3 -52 q0 -18 -5.5 -35.5t-16.5 -41.5l40 -22q40 -22 59.5 -30t47.5 -8zM138 33q0 -13 13.5 -18.5t36.5 -5.5q13 0 31.5 13.5t36.5 35.5q-19 7 -34.5 10.5t-33.5 3.5q-21 0 -37.5 -12.5t-12.5 -26.5zM27 8h647v-6h-647v6zM32 265h644v-6h-644v6zM31 15h645v-15h-645v15zM32 275h643 v-15h-643v15z" />
<glyph unicode="E" horiz-adv-x="553" d="M327 368q0 -35 -30 -46.5t-73 -11.5q-38 0 -80 14.5t-72 37.5q-28 -26 -45 -66t-17 -88q0 -72 91.5 -135.5t196.5 -63.5q97 0 150.5 21t76.5 56t28 35t8 -4.5t0 -10.5q-44 -70 -103 -93.5t-160 -23.5q-113 0 -210.5 67t-97.5 152q0 52 18.5 96.5t49.5 72.5 q-19 21 -29 43.5t-10 49.5q0 77 64 121.5t151 44.5q77 0 119.5 -9.5t87.5 -44.5q7 -5 1 -13t-13 -3q-42 32 -81.5 41t-113.5 9q-81 0 -138 -39.5t-57 -106.5q0 -21 10.5 -43.5t25.5 -38.5q30 20 67.5 30.5t78.5 10.5q43 0 74.5 -12.5t31.5 -48.5zM224 330q34 0 58.5 9 t24.5 29q0 21 -25 31t-61 10q-37 0 -72.5 -9.5t-61.5 -26.5q25 -17 65.5 -30t71.5 -13zM-9 8h583v-6h-583v6zM-8 265h581v-6h-581v6zM-9 15h580v-15h-580v15zM-8 275h578v-15h-578v15z" />
<glyph unicode="F" horiz-adv-x="719" d="M439 315q14 -3 27.5 -5.5t28.5 -2.5q17 0 38 6q12 0 12 -14q0 -6 -6 -6q-24 -6 -44 -6q-15 0 -31 3t-25 4v-15q0 -48 -5 -115q0 -77 -38 -125.5t-130 -48.5q-73 0 -124.5 33.5t-71.5 105.5q0 12 14 12q6 0 6 -6q19 -66 63 -95.5t113 -29.5q81 0 110.5 39t36.5 113.5 t7 133.5l-25 3q-34 0 -49.5 -14t-22 -23.5t-11.5 -9.5q-4 0 -8 4t-2 9q12 18 31.5 36t61.5 18l24 -1v248q-50 12 -100 25q-56 11 -92 11q-52 0 -94 -36.5t-42 -109.5q0 -58 22.5 -80t54.5 -22q19 0 26 1.5t12 4.5q12 5 12 -9q0 -7 -6.5 -9t-16.5 -4t-26 -2q-40 0 -69 25.5 t-29 94.5q0 81 48 123.5t108 42.5q64 0 151 -22.5t131 -22.5q63 0 103.5 6.5t103.5 26.5q12 0 12 -14q0 -6 -6 -6q-55 -17 -104 -25t-109 -8h-15q-11 0 -25.5 1t-29.5 4v-247zM30 7h714v-6h-714v6zM32 265h710v-6h-710v6zM31 15h710v-15h-710v15zM32 275h708v-15h-708v15z " />
<glyph unicode="G" horiz-adv-x="785" d="M248 -12q-65 0 -121.5 46.5t-56.5 139.5q0 196 153.5 326.5t396.5 130.5q10 0 10 -10v-664q65 37 111.5 73.5t62 63.5t20.5 27q8 0 10.5 -5t-0.5 -10q-25 -41 -70.5 -82t-133.5 -90v-156q0 -68 -28 -115t-84 -47q-44 0 -74 36t-30 82q0 17 11 52t60.5 77.5t124.5 82.5 v321q-37 -128 -136 -203.5t-226 -75.5zM90 174q0 -85 49.5 -125.5t108.5 -40.5q151 0 257 111t106 288v204q-232 0 -376.5 -125t-144.5 -312zM438 -243q-3 -12 -3 -24q0 -37 24.5 -67t58.5 -30q45 0 68.5 39t23.5 103v144q-74 -40 -115.5 -75.5t-56.5 -89.5zM30 6h811v-6 h-811v6zM32 265h807v-6h-807v6zM31 15h807v-15h-807v15zM32 275h805v-15h-805v15z" />
<glyph unicode="H" horiz-adv-x="783" d="M746 603q20 -29 20 -65q0 -37 -19.5 -68.5t-58.5 -53t-88.5 -37t-93.5 -28.5l-3 -78q0 -105 49 -184t136 -79q35 0 63 34t54 73q4 7 12 1t4 -13q-40 -58 -66.5 -86.5t-66.5 -28.5q-98 0 -151.5 86t-53.5 197l1 69l-29 -12l-50 -24q0 -19 2 -72.5t2 -63.5 q0 -74 -28 -127.5t-89 -53.5q-39 0 -65 28t-26 67q0 46 18.5 79t49 69.5t56.5 53.5t59 32v83q2 46 8.5 82.5t16 70t16.5 53.5q-17 -6 -36 -11.5t-35 -5.5q-31 0 -86.5 13.5t-77.5 13.5q-49 0 -84 -29.5t-35 -74.5q0 -44 36 -60t72 -23q9 0 9 -9q0 -11 -11 -11 q-42 7 -84 25.5t-42 77.5q0 54 41.5 89t97.5 35q29 0 86.5 -13.5t77.5 -13.5q18 0 40.5 8t42.5 16q13 0 13 -12q-9 -30 -19 -65t-16 -64.5t-8.5 -61.5t-2.5 -65v-37l43 19l39 17q17 117 39 183t59 77.5t51 14t31 2.5q26 0 45.5 -8.5t34.5 -30.5zM680 435q31 17 48.5 45.5 t17.5 57.5q0 30 -13 49.5t-29.5 26.5t-38.5 7t-37 -4t-39.5 -11t-48 -73t-33.5 -161q57 17 97.5 30t75.5 33zM221 84q0 -31 20 -53t51 -22q47 0 72 47t25 114q0 23 -1.5 56t-2.5 72q-28 -14 -49.5 -29.5t-46 -43.5t-46.5 -60t-22 -81zM23 7h808v-6h-808v6zM23 265h804v-6 h-804v6zM21 15h809v-15h-809v15zM22 275h806v-15h-806v15z" />
<glyph unicode="I" horiz-adv-x="573" d="M84 489q0 66 48.5 105.5t132.5 39.5q36 0 96.5 -21t83.5 -21q55 0 64.5 2.5t30.5 21.5q4 4 10.5 0t6.5 -10q-21 -70 -21 -162q0 -46 6 -136.5t6 -97.5q0 -40 -3.5 -62.5t-26 -64t-82 -69t-108.5 -27.5q-78 0 -137.5 33t-96.5 101q-2 5 1 10t10 5q4 0 22 -34t73 -64.5 t128 -30.5q47 0 100 25t72.5 61t23.5 60.5t4 55.5q0 32 -6 112t-6 123q0 37 1.5 67t11.5 71q-12 -6 -30 -8t-54 -2t-96.5 21t-83.5 21q-79 0 -120 -33t-41 -92q0 -71 27.5 -94t66.5 -23q17 1 22 1q9 0 9 -10t-9 -10h-14q-46 0 -84 26t-38 110zM30 7h582v-6h-582v6zM31 265 h579v-6h-579v6zM33 15h577v-15h-577v15zM34 275h575v-15h-575v15z" />
<glyph unicode="J" horiz-adv-x="705" d="M435 -386q-25 0 -62.5 26t-37.5 75q0 45 17 85.5t54.5 68.5t70 48t56.5 34q0 74 -3 203t-3 209q0 48 4 115t9 119q-14 -7 -34 -14.5t-35 -7.5q-69 0 -150 19t-108 19q-51 0 -86.5 -41t-35.5 -96q0 -57 33 -73.5t68 -21.5q9 0 9 -10t-9 -10q-40 5 -80.5 24t-40.5 91 q0 63 40.5 110t101.5 47q33 0 112 -19t146 -19q17 0 37.5 9t38.5 19q15 0 15 -9q-5 -56 -10 -128t-5 -123q0 -108 3 -252t3 -148q69 39 105 66.5t80 87.5q5 7 13 1t3 -13q-45 -63 -85 -93t-115 -73v-39.5t1 -42.5q0 -143 -31 -193t-89 -50zM355 -285q0 -37 31.5 -59 t48.5 -22q69 0 83.5 74t14.5 219q-35 -21 -58 -35.5t-56 -39t-48.5 -60.5t-15.5 -77zM30 6h736v-6h-736v6zM33 265h732v-6h-732v6zM32 15h735v-15h-735v15zM33 275h733v-15h-733v15z" />
<glyph unicode="K" horiz-adv-x="862" d="M754 614q-60 0 -126 -129t-102 -167q29 -27 48.5 -65t28 -82.5t17.5 -89.5q17 -35 37 -53.5t72 -18.5q56 0 85 22t51 56t27 34t8 -4.5t0 -10.5q-39 -63 -75 -90t-96 -27q-57 0 -85 25t-42 59q-10 55 -18 94t-26.5 75.5t-48.5 62.5q-19 -14 -38 -22.5t-38 -8.5l-30 1 q0 -15 2 -54.5t2 -47.5q0 -72 -28.5 -129t-86.5 -57q-38 0 -64.5 30.5t-26.5 69.5q0 9 10 9t10 -9q0 -30 21 -55t50 -25q44 0 69.5 49.5t25.5 116.5q0 20 -2 55t-2 50q-16 3 -24 11.5t-8 26.5q0 16 7.5 24.5t22.5 12.5q0 50 1.5 78t7.5 58.5t12.5 52t20.5 64.5 q-14 -6 -35.5 -11.5t-42.5 -5.5q-30 0 -81 15.5t-74 15.5q-49 0 -84 -29.5t-35 -74.5q0 -44 36 -60t72 -23q9 0 9 -9q0 -11 -11 -11q-42 7 -84 25.5t-42 77.5q0 54 41.5 89t97.5 35q27 0 78.5 -15.5t76.5 -15.5q40 0 60.5 9t29.5 16q5 3 9.5 -0.5t4.5 -10.5 q-10 -29 -21.5 -65.5t-17 -66.5t-8 -63t-2.5 -71l24 1q49 0 89 -28q17 18 93 161t148 143q9 0 9 -10t-9 -10zM424 338l-24 -2l2 -40l31 -2q39 0 64 23q-32 21 -73 21zM381 331q-10 0 -10 -15q0 -10 11 -16zM21 6h885v-6h-885v6zM23 265h881v-6h-881v6zM21 15h885v-15h-885 v15zM22 275h882v-15h-882v15z" />
<glyph unicode="L" horiz-adv-x="642" d="M242 447q0 69 57 125t131 56q77 0 111.5 -24t51.5 -73q0 -9 -10 -9t-10 9q-10 37 -40.5 57t-102.5 20q-65 0 -116.5 -50.5t-51.5 -110.5q0 -52 13 -153.5t13 -143.5q0 -12 -2 -22t-7 -25q34 -17 72.5 -36.5t81.5 -40.5q39 -16 84 -16q58 0 86.5 23t69.5 84q4 7 12 1 t4 -13q-49 -74 -85 -94.5t-87 -20.5q-58 0 -112 26q-42 23 -66 35l-68 33q-20 -37 -51 -65.5t-60 -28.5q-41 0 -66 14t-25 47t21.5 57.5t54.5 24.5q27 0 57.5 -5.5t57.5 -15.5q3 9 5.5 20t2.5 18q0 43 -13 147t-13 150zM89 51q0 -41 71 -41q18 0 46 26t46 55 q-23 9 -53.5 15.5t-53.5 6.5t-39.5 -18.5t-16.5 -43.5zM32 8h670v-6h-670v6zM31 265h667v-6h-667v6zM30 15h673v-15h-673v15zM31 275h670v-15h-670v15z" />
<glyph unicode="M" horiz-adv-x="1069" d="M541 636q51 0 62 -42.5t11 -113.5v-87q30 98 83 170t144 72q42 0 57.5 -37t15.5 -88v-390q0 -50 14 -80t53 -30q22 0 53 24t49.5 55.5t23.5 31.5q8 0 10.5 -5t-0.5 -10q-36 -60 -71.5 -88t-64.5 -28q-51 0 -69 38t-18 92v390q0 45 -12.5 75t-40.5 30q-98 0 -141.5 -81.5 t-85.5 -206.5v-327q0 -9 -10 -9t-10 9v480q0 62 -9.5 100.5t-43.5 35.5q-73 0 -119 -59t-67.5 -128t-35.5 -119l1 -310q0 -9 -10 -9t-10 9v441q0 56 -13.5 117.5t-42.5 56.5q-45 0 -93 -76.5t-62 -130.5q0 -7 -7 -7q-5 0 -9 4t-4 9q22 70 68.5 145.5t106.5 75.5 q38 -4 57 -52t19 -142v-53q26 100 77 174t144 74zM32 6h1099v-6h-1099v6zM32 265h1093v-6h-1093v6zM30 15h1099v-15h-1099v15zM32 275h1095v-15h-1095v15z" />
<glyph unicode="N" horiz-adv-x="775" d="M323 305v-302q0 -9 -10 -9t-10 9v315v165q0 46 -17 91t-39 41q-42 0 -91.5 -73.5t-64.5 -131.5q0 -7 -7 -7q-5 0 -9 4t-4 9q21 72 70 145.5t106 73.5q40 -3 58 -49.5t18 -102.5v-90q32 105 85 173.5t130 68.5q45 0 64.5 -35t19.5 -99v-394q0 -42 17.5 -70t50.5 -28 q24 0 56 28t48 56t21 28q8 0 10.5 -5t-0.5 -10q-32 -55 -67 -86t-68 -31q-43 0 -65.5 35t-22.5 83v394q0 61 -14.5 87.5t-49.5 26.5q-78 0 -136 -94.5t-78 -209.5zM30 6h800v-6h-800v6zM34 265h796v-6h-796v6zM32 15h798v-15h-798v15zM33 275h795v-15h-795v15z" />
<glyph unicode="O" horiz-adv-x="694" d="M723 602q6 6 13 -1t1 -13q-33 -33 -63.5 -54.5t-69.5 -35.5q52 -88 52 -196q0 -129 -94 -221t-218 -92q-119 0 -197 95t-78 230q0 131 95.5 225.5t218.5 94.5q65 0 118.5 -31t91.5 -88q36 13 68 35t62 52zM377 559q0 -29 37.5 -44t87.5 -15q38 0 70 9q-28 41 -63 66 t-80 34q-35 0 -43.5 -11.5t-8.5 -38.5zM502 480q-58 0 -101.5 17t-43.5 62q0 21 5 34t15 21q-112 0 -200 -89t-88 -211q0 -128 72.5 -216.5t182.5 -88.5q114 0 203 86t89 207q0 105 -52 189q-39 -11 -82 -11zM32 7h716v-6h-716v6zM31 265h713v-6h-713v6zM30 15h715v-15h-715 v15zM31 275h713v-15h-713v15z" />
<glyph unicode="P" horiz-adv-x="589" d="M364 634q111 0 163.5 -45t52.5 -115q0 -128 -64 -197.5t-146.5 -92.5t-158.5 -23q-11 0 -11 11q0 9 9 9q77 0 154 21t137 86.5t60 185.5q0 77 -60 108.5t-136 31.5q-106 0 -189.5 -91t-83.5 -175l-3 -8v-340q0 -9 -10 -9t-10 9v624q0 9 10 9t10 -9v-198q33 82 109 145 t167 63zM29 6h589v-6h-589v6zM31 265h585v-6h-585v6zM30 15h585v-15h-585v15zM31 275h583v-15h-583v15z" />
<glyph unicode="Q" horiz-adv-x="785" d="M281 -11q-88 0 -136.5 58.5t-48.5 150.5q0 118 74.5 213t163.5 147t159.5 62.5t133.5 10.5h13.5h5.5q10 0 10 -10v-611q52 0 102.5 25t68.5 55.5t23 30.5q8 0 10.5 -5t-0.5 -10q-37 -60 -93 -88t-111 -28v-368q0 -9 -10 -9t-10 9v644q-39 -130 -135.5 -203.5 t-219.5 -73.5zM376 559q-119 -69 -189.5 -159t-70.5 -202q0 -86 42.5 -137.5t122.5 -51.5q147 0 251 109t104 289v204q-60 0 -132 -9.5t-128 -42.5zM34 6h845v-6h-845v6zM30 265h837v-6h-837v6zM38 15h837v-15h-837v15zM39 275h834v-15h-834v15z" />
<glyph unicode="R" horiz-adv-x="723" d="M480 230q21 -41 32 -88t16 -70t18.5 -43t50.5 -20q52 0 85 25t52 56t24 31q8 0 10.5 -5t-0.5 -10q-35 -59 -74 -88t-97 -29q-47 0 -64.5 25.5t-25 58.5t-16 70t-23 65.5t-27 42.5t-32.5 29q-19 -17 -42.5 -28.5t-43.5 -11.5h-12q-28 0 -44.5 7t-16.5 33t23 39t50 13 q43 0 83 -25q33 38 54 81.5t21 77.5q0 52 -47.5 101.5t-112.5 49.5q-105 0 -170 -89t-65 -171l-3 -7v-350q0 -9 -10 -9t-10 9v621q0 9 10 9t10 -9v-175q28 79 88.5 135t149.5 56q75 0 127.5 -54.5t52.5 -116.5q0 -40 -21 -87.5t-56 -84.5q17 -14 32.5 -30.5t23.5 -33.5z M270 280q0 -15 16.5 -17.5t36.5 -2.5q15 0 33.5 9.5t34.5 23.5q-13 9 -33 14t-35 5q-20 0 -36.5 -9.5t-16.5 -22.5zM27 6h748v-6h-748v6zM28 265h745v-6h-745v6zM27 15h747v-15h-747v15zM28 275h745v-15h-745v15z" />
<glyph unicode="S" horiz-adv-x="505" d="M182 278q31 0 75.5 30.5t88.5 78.5q-22 48 -34 88t-12 76q0 37 20.5 58.5t58.5 21.5q37 0 54.5 -24.5t17.5 -52.5q0 -36 -22 -82t-57 -89l37 -75q27 -43 46 -78.5t19 -73.5q0 -24 -16 -66.5t-73.5 -71t-132.5 -28.5q-73 0 -128 27.5t-55 87.5q0 9 10 9t10 -9 q0 -45 49.5 -70t115.5 -25q70 0 121.5 25t63.5 56t14 43t2 21q0 32 -23 74q-21 34 -41 69l-35 66q-43 -46 -90.5 -76t-83.5 -30q-9 0 -9 10t9 10zM379 611q-59 0 -59 -60q0 -32 11 -67.5t30 -78.5q32 41 51 80t19 69q0 24 -12 40.5t-40 16.5zM30 8h512v-6h-512v6zM31 265 h509v-6h-509v6zM30 15h516v-15h-516v15zM31 275h514v-15h-514v15z" />
<glyph unicode="T" horiz-adv-x="764" d="M567 554l-16 -2q-20 -3 -36 -3q-44 0 -121 28t-149 28q-62 0 -108.5 -36t-46.5 -92q0 -67 26.5 -91t58.5 -24q10 0 13 0.5t4 1.5q11 0 11 -13q0 -7 -7 -7q-8 -1 -13 -1q-56 0 -84.5 36t-28.5 98q0 65 53.5 106.5t121.5 41.5q76 0 155 -28t116 -28q15 0 33 3l106 14 q8 0 8 -13q0 -7 -5 -7q-13 0 -73 -25t-121.5 -84t-84.5 -159q13 0 35.5 -2.5t28.5 -2.5q25 0 29.5 3t5.5 3q0 7 6 7q12 0 12 -15q0 -8 -16.5 -13t-36.5 -5q-13 0 -36 2t-32 2q-6 -32 -6 -70q0 -101 63 -149t161 -48q96 0 129.5 24t73.5 83q4 8 12 2t4 -14q-35 -55 -77 -85 t-142 -30q-102 0 -173 54t-71 163q0 16 2.5 42t2.5 29q-12 0 -24 -0.5t-32.5 -7.5t-28.5 -13t-12 -16q0 -7 -7 -7q-13 0 -13 11q2 7 10.5 20t37 22t43 11t30.5 2q22 96 80 158t129 96zM30 8h791v-6h-791v6zM32 265h787v-6h-787v6zM31 15h788v-15h-788v15zM32 275h785v-15 h-785v15z" />
<glyph unicode="U" horiz-adv-x="778" d="M291 93v454q0 32 -8.5 50t-32.5 18q-45 0 -95.5 -62.5t-65.5 -127.5q0 -7 -7 -7q-13 0 -13 11q20 76 71 141t110 65q36 0 48.5 -26t12.5 -62v-454q0 -33 21.5 -59.5t49.5 -26.5q92 0 156.5 71t64.5 271v276q0 9 10 9t10 -9v-529q0 -48 16 -67t49 -19q31 0 60 27t46 55.5 t22 28.5q8 0 10.5 -5t-0.5 -10q-37 -58 -67.5 -87t-70.5 -29t-62.5 26.5t-22.5 79.5v76q-21 -81 -77.5 -133t-143.5 -52q-40 0 -65.5 32t-25.5 74zM30 7h805v-6h-805v6zM32 265h801v-6h-801v6zM30 15h805v-15h-805v15zM31 275h803v-15h-803v15z" />
<glyph unicode="V" horiz-adv-x="832" d="M715 368q0 -150 -57 -263t-178 -113q-79 0 -133 53t-54 140v294q0 71 -3 105t-36 31q-55 0 -109 -77.5t-54 -112.5q0 -9 -10 -9t-10 9q0 47 56 128.5t127 81.5q37 0 48 -27.5t11 -83.5v-45v-294q0 -80 47.5 -126.5t119.5 -46.5q107 0 161 106.5t54 249.5v15q0 56 -5 114 q-5 -1 -17 -1q-47 0 -84.5 29t-37.5 68q0 21 18.5 33.5t39.5 12.5q44 0 68.5 -33.5t31.5 -88.5q96 8 158 57q5 4 10.5 1t5.5 -9q0 -5 -19 -20.5t-63.5 -32t-88.5 -16.5q2 -16 2 -48t1 -51v-30zM609 619q-15 0 -26 -9t-11 -20q0 -28 32.5 -51t73.5 -23h9q-7 48 -26 75.5 t-52 27.5zM30 8h869v-6h-869v6zM34 265h864v-6h-864v6zM32 15h864v-15h-864v15zM33 275h862v-15h-862v15z" />
<glyph unicode="W" horiz-adv-x="1069" d="M1114 559q-35 -28 -80 -44.5t-90 -16.5q3 -27 3.5 -62t0.5 -67q0 -140 -52.5 -259.5t-152.5 -119.5q-63 0 -104.5 35.5t-56.5 98.5q-14 -60 -45.5 -97t-86.5 -37q-79 0 -119 46.5t-40 149.5v294q0 86 -6.5 110.5t-29.5 24.5q-58 0 -112 -73t-54 -111q0 -9 -9 -9 q-11 0 -11 11q8 53 61 127.5t125 74.5q46 0 51 -41.5t5 -113.5v-294q0 -101 32 -138.5t107 -37.5q84 0 106.5 98.5t22.5 242.5q0 9 10 9t10 -9v-35v-15q0 -46 -5 -109l2 -6q0 -84 38 -130t109 -46q84 0 134.5 113.5t50.5 245.5v15q0 56 -5 113q-56 0 -97.5 27t-41.5 70 q0 21 18.5 33.5t39.5 12.5q43 0 68.5 -35t31.5 -87q49 4 88 18t72 39q3 2 9.5 0t6.5 -9q0 -4 -4 -7zM842 620q-14 0 -26 -8t-12 -18q0 -29 35.5 -53t80.5 -24q-7 50 -26 76.5t-52 26.5zM30 8h1110v-6h-1110v6zM32 265h1106v-6h-1106v6zM30 15h1107v-15h-1107v15zM32 275 h1103v-15h-1103v15z" />
<glyph unicode="X" horiz-adv-x="928" d="M129 87q-4 16 -4 36q0 45 27 82.5t86 54.5t107 24t143 15l1 43q0 115 -41.5 194t-130.5 79q-93 0 -145.5 -36.5t-86.5 -73.5q-5 -7 -13 -1t-3 13q36 40 92 79t156 39q93 0 141.5 -74t48.5 -173q16 99 77 172.5t155 73.5q59 0 100.5 -35.5t41.5 -76.5q0 -65 -44.5 -120.5 t-111.5 -77t-108 -29t-96 -13.5q0 -119 52.5 -195.5t170.5 -76.5q98 0 139 27.5t59 55.5t23 28t8 -4.5t0 -10.5q-30 -51 -78.5 -83.5t-150.5 -32.5q-123 0 -176 73.5t-65 193.5q-29 -130 -78.5 -199t-159.5 -69q-50 0 -86.5 25.5t-49.5 72.5zM706 340q74 24 114.5 74.5 t40.5 107.5q0 30 -35.5 61t-86.5 31q-98 0 -158 -93.5t-60 -218.5q52 5 92 13t93 25zM229 236q-37 -10 -60.5 -42t-23.5 -71v-12.5t7.5 -31t38.5 -48.5t74 -22q101 0 154.5 76.5t66.5 193.5q-59 -7 -124 -14.5t-133 -28.5zM27 8h953v-6h-953v6zM30 265h948v-6h-948v6zM28 15 h952v-15h-952v15zM29 275h949v-15h-949v15z" />
<glyph unicode="Y" horiz-adv-x="725" d="M755 116q3 5 8 5t8.5 -4.5t1.5 -10.5q-26 -49 -78.5 -91t-126.5 -86v-136q0 -70 -23 -124t-86 -54q-49 0 -77.5 34.5t-28.5 88.5q0 57 51.5 103.5t143.5 98.5v363q-31 -76 -78 -133t-113 -57q-57 0 -87.5 35.5t-30.5 100.5v273q0 47 -15.5 70t-42.5 23q-42 0 -61 -35 t-31 -72q0 -7 -7 -7q-13 0 -13 11q11 41 33 82t77 41q38 0 59 -30t21 -83v-273q0 -43 18 -79.5t80 -36.5q56 0 108 66t83 167v255q0 9 10 9t10 -9v-254v-415q72 42 117.5 80t69.5 84zM373 -262q0 -48 22.5 -75.5t63.5 -27.5q48 0 68.5 48t20.5 110v123q-107 -63 -141 -102 t-34 -76zM32 9h759v-6h-759v6zM31 265h755v-6h-755v6zM30 15h762v-15h-762v15zM31 275h760v-15h-760v15z" />
<glyph unicode="Z" horiz-adv-x="717" d="M220 -9q-34 0 -50.5 11t-16.5 29q0 25 27 48t61 23q41 0 78 -13q21 36 40.5 92.5t41.5 128.5q-11 4 -24.5 7t-27.5 3q-21 0 -34 -14t-19.5 -23.5t-11.5 -9.5q-4 0 -8 4t-2 9q10 18 26.5 36t48.5 18q19 0 29 -1.5t29 -7.5q31 107 43 144t29 77q-33 4 -138.5 33t-150.5 29 q-41 0 -71 -31t-30 -73q0 -56 21 -70.5t44 -18.5q9 0 9 -10t-9 -10q-28 6 -56.5 25t-28.5 84q0 51 35.5 87.5t85.5 36.5q51 0 159.5 -29.5t139.5 -32.5q15 32 34 51.5t39 19.5q29 3 49.5 -13.5t20.5 -37.5q0 -18 -17 -30.5t-52 -12.5h-25h-26q-10 2 -14 2 q-16 -39 -36.5 -110.5t-33.5 -117.5q15 -5 30.5 -9t31.5 -4q21 0 31.5 7t17.5 16q4 7 12 1t4 -13q-4 -6 -18.5 -18.5t-46.5 -12.5q-20 0 -39 4.5t-29 7.5q-17 -62 -39 -120.5t-45 -98.5q16 -6 87 -40t129 -34q69 0 111.5 24t64 56t26.5 32t8 -4.5t0 -10.5q-27 -45 -71 -81 t-139 -36q-68 0 -129 28.5t-99 46.5q-21 -33 -49.5 -53t-56.5 -20zM563 567q26 0 38.5 7.5t12.5 20.5q0 14 -14.5 22.5t-40.5 8.5q-12 0 -26.5 -16.5t-25.5 -39.5zM241 84q-25 0 -45.5 -15.5t-20.5 -32.5q0 -25 45 -25q24 0 47 16.5t41 43.5q-11 5 -31.5 9t-35.5 4zM33 8 h793v-6h-793v6zM31 265h789v-6h-789v6zM30 15h797v-15h-797v15zM31 275h794v-15h-794v15z" />
<glyph unicode="[" horiz-adv-x="280" d="M193 575v-700h90q9 0 9 -10t-9 -10h-100q-10 0 -10 10v720q0 10 10 10h100q9 0 9 -10t-9 -10h-90zM82 11h451v-6h-451v6zM83 265h448v-6h-448v6zM82 15h453v-15h-453v15zM83 275h451v-15h-451v15z" />
<glyph unicode="\" d="M139 624q-2 3 0.5 9.5t9.5 6.5q3 0 6 -4l445 -655q2 -3 -0.5 -9.5t-9.5 -6.5q-3 0 -6 4zM70 8h589v-6h-589v6zM65 265h587v-6h-587v6zM64 15h589v-15h-589v15zM65 275h587v-15h-587v15z" />
<glyph unicode="]" horiz-adv-x="280" d="M270 595q10 0 10 -10v-720q0 -10 -10 -10h-100q-9 0 -9 10t9 10h90v700h-90q-9 0 -9 10t9 10h100zM76 9h451v-6h-451v6zM77 265h448v-6h-448v6zM76 15h453v-15h-453v15zM77 275h451v-15h-451v15z" />
<glyph unicode="^" horiz-adv-x="306" d="M157 377q-24 -27 -37.5 -42t-28.5 -28q-5 -4 -10.5 -1t-5.5 9q0 5 11 14t29.5 30t33.5 40q0 3 8 3t8 -3q8 -11 27 -33.5t43 -42.5q7 -6 1 -14t-13 -2q-11 9 -29.5 28.5t-36.5 41.5z" />
<glyph unicode="_" horiz-adv-x="486" d="M248 -32h156q9 0 9 -10t-9 -10h-156h-177q-9 0 -9 10t9 10h177z" />
<glyph unicode="`" horiz-adv-x="306" d="M110 386q-6 6 1 13t13 1l72 -78q6 -6 -1 -13t-13 -1z" />
<glyph unicode="a" horiz-adv-x="436" d="M266 77q0 -32 12 -50t32 -18q38 0 68 35t43 56t18 21t8.5 -4.5t1.5 -10.5q-23 -39 -56 -78t-83 -39q-28 0 -44.5 21t-19.5 55q-22 -36 -61 -55.5t-73 -19.5q-45 0 -78.5 23.5t-33.5 67.5q0 78 76 128.5t180 50.5q6 0 7.5 -3.5t2.5 -6.5v-173zM20 81q0 -33 27 -52t65 -19 q44 0 89 33.5t45 94.5v102q-94 0 -160 -47t-66 -112zM-10 15h544v-15h-544v15zM-9 275h542v-15h-542v15z" />
<glyph unicode="b" horiz-adv-x="442" d="M188 -10q-49 0 -87 40.5t-38 109.5v58l-55 -92q-3 -5 -8 -5t-8 4.5t0 10.5l71 121v266q0 68 12 100t47 32q28 -3 45 -36.5t17 -86.5v-23q-3 -17 -8 -44t-31 -86.5t-62 -124.5v-94q0 -60 32.5 -95t72.5 -35q28 0 51 18t36 50q-18 14 -33 35.5t-22 41.5q-2 15 -3.5 26 t-1.5 14q0 20 7 34.5t25 20.5q33 4 48.5 -22.5t15.5 -66.5q0 -41 -12 -75q6 -4 19.5 -7t29.5 -3q26 0 49 9t31.5 22t13.5 13t8 -4.5t0 -9.5q-18 -27 -46 -39t-58 -12q-14 0 -21 1q-8 3 -13 4t-10 2.5t-10 4.5q-16 -36 -42.5 -56.5t-61.5 -20.5zM251 230q-7 0 -11 -12.5 t-4 -27.5q0 -20 4 -29q5 -17 16.5 -33.5t25.5 -29.5q5 21 7 33.5t2 29.5q0 33 -11 53t-29 16zM160 468q2 10 3 22t1 23q0 45 -14.5 75.5t-27.5 26.5q-19 0 -29 -26t-10 -86v-228q26 51 48.5 105t28.5 88zM-11 7h463v-6h-463v6zM-8 265h461v-6h-461v6zM-9 15h466v-15h-466v15 zM-8 275h464v-15h-464v15z" />
<glyph unicode="c" horiz-adv-x="317" d="M133 240q-49 0 -85 -33t-36 -83q0 -56 43.5 -85.5t98.5 -29.5q64 0 92 26t65 82q4 7 12 1t4 -13q-38 -56 -70 -86t-103 -30q-61 0 -111.5 34t-50.5 101q0 59 41.5 97.5t99.5 38.5q34 0 47 -2q3 -2 6 -3q9 0 9 -10t-9 -10q-5 0 -11.5 2.5t-41.5 2.5zM-10 7h451v-6h-451v6z M-6 265h448v-6h-448v6zM-7 15h449v-15h-449v15zM-6 275h447v-15h-447v15z" />
<glyph unicode="d" horiz-adv-x="430" d="M422 117q4 7 12 1t4 -13q-43 -63 -68 -89.5t-69 -26.5q-33 0 -48.5 24t-15.5 64q-23 -36 -63 -61.5t-81 -25.5q-42 0 -72.5 29.5t-30.5 73.5q0 39 18 65t55.5 52.5t80.5 36t92 9.5v291q0 9 10 9t10 -9v-429q0 -109 45 -109q33 0 59.5 27.5t61.5 80.5zM74 194 q-64 -46 -64 -101q0 -35 25 -59t58 -24q45 0 89 37t54 79v109q-64 0 -98.5 -10.5t-63.5 -30.5zM-9 6h502v-6h-502v6zM-8 265h499v-6h-499v6zM-9 15h502v-15h-502v15zM-8 275h500v-15h-500v15zM235 630h21v-100h-21v100zM257 626q0 -9 -11 -9q-4 0 -7 2.5t-3 6.5q0 3 2.5 7 t7.5 4q4 0 7.5 -3t3.5 -8z" />
<glyph unicode="e" horiz-adv-x="257" d="M30 38q26 -28 73 -28q45 0 85 33.5t51.5 55.5t16.5 22t8.5 -4.5t1.5 -10.5q-24 -44 -66.5 -80t-96.5 -36q-27 0 -49 8.5t-43.5 32.5t-21.5 75q0 39 16 78.5t42 57.5t51 18q21 0 37.5 -14t20.5 -38q0 -18 -6 -36.5t-22 -31.5t-49.5 -23.5t-69.5 -14.5q0 -15 6 -35t15 -29z M136 204q-3 18 -14 27t-24 9q-19 0 -39 -14t-30.5 -38t-14.5 -41t-5 -26q31 0 63 11.5t43 21.5t16 23t5 27zM-10 6h451v-6h-451v6zM-8 265h448v-6h-448v6zM-9 15h451v-15h-451v15zM-8 275h449v-15h-449v15z" />
<glyph unicode="f" horiz-adv-x="249" d="M122 635q28 -3 45 -36.5t17 -86.5v-23q-3 -17 -8 -45t-31 -88.5t-62 -123.5v-109v-180q60 55 97 93.5t50 61.5t18 23q8 0 10.5 -5t-0.5 -10q-26 -46 -66.5 -88t-108.5 -106v-168q0 -36 -20.5 -65t-56.5 -29q-32 0 -49.5 27t-17.5 60q0 43 32.5 88t91.5 99v199v73l-54 -90 q-3 -5 -8 -5q-8 0 -10.5 5t0.5 10l72 121v266q0 68 12 100t47 32zM-41 -263q0 -29 12.5 -48t34.5 -19q26 0 41.5 21.5t15.5 52.5v149q-47 -44 -75.5 -84t-28.5 -72zM160 468q2 10 3 22t1 23q0 45 -14.5 75.5t-27.5 26.5q-19 0 -29 -26t-10 -86v-229q26 49 48 102.5t29 91.5z M-7 6h451v-6h-451v6zM-8 265h448v-6h-448v6zM-9 15h455v-15h-455v15zM-8 275h453v-15h-453v15z" />
<glyph unicode="g" horiz-adv-x="422" d="M413 116q3 5 8 5q8 0 10.5 -5t-0.5 -10q-21 -37 -52 -72.5t-123 -121.5v-168q0 -36 -20.5 -65t-56.5 -29q-32 0 -49.5 27t-17.5 60q0 53 37 97t87 91v152q-23 -37 -60.5 -62t-83.5 -25q-50 0 -76 31t-26 75q0 30 19.5 61.5t54.5 56.5t81 35t84 10h12.5h5.5q9 0 9 -10 v-306q58 54 96.5 94t60.5 79zM73 196q-27 -19 -45 -47.5t-18 -52.5q0 -39 19.5 -62.5t62.5 -23.5q48 0 92.5 40t51.5 74v115q-36 0 -80.5 -8t-82.5 -35zM132 -263q0 -29 12.5 -48t34.5 -19q26 0 41.5 21.5t15.5 52.5v149q-50 -48 -77 -85.5t-27 -70.5zM-10 7h451v-6h-451v6z M-8 265h448v-6h-448v6zM-9 15h453v-15h-453v15zM-8 275h451v-15h-451v15z" />
<glyph unicode="h" horiz-adv-x="477" d="M115 635q28 -3 45 -36.5t17 -86.5v-23q-3 -17 -7.5 -42t-32.5 -91.5t-61 -130.5v-85q35 52 81.5 86.5t98.5 34.5q20 -2 33.5 -21.5t13.5 -56.5v-96q0 -78 46 -78q28 0 58 28t47 56t22 28q8 0 10.5 -5t-0.5 -10q-35 -57 -67 -87t-70 -30q-34 0 -50 27.5t-16 70.5v96 q0 21 -8.5 41t-18.5 17q-48 0 -98.5 -41t-80.5 -97l-1 -103q0 -9 -10 -9t-10 9v187l-48 -82q-4 -7 -12 -1t-4 13q22 33 64 111v275q0 68 12 100t47 32zM153 468q2 10 3 22t1 23q0 45 -14.5 75.5t-27.5 26.5q-19 0 -29 -26t-10 -86v-235q28 57 49 109.5t28 90.5zM-7 7h498v-6 h-498v6zM-8 265h496v-6h-496v6zM-9 15h502v-15h-502v15zM-8 275h500v-15h-500v15z" />
<glyph unicode="i" horiz-adv-x="184" d="M-20 265h465v-6h-465v6zM25 78q0 -30 11.5 -49t36.5 -19q26 0 57.5 27.5t47 55.5t20.5 28q8 0 10.5 -5t-0.5 -10q-64 -116 -135 -116q-35 0 -51.5 27t-16.5 61v171q0 9 10 9t10 -9v-171zM44 393q0 -18 -20 -18q-7 0 -13 5t-6 13q0 5 4.5 12.5t14.5 7.5q8 0 14 -6t6 -14z M-20 15h468v-15h-468v15zM-19 275h466v-15h-466v15z" />
<glyph unicode="j" horiz-adv-x="242" d="M83 392q0 -18 -20 -18q-7 0 -13 5t-6 13q0 5 4.5 12.5t14.5 7.5q8 0 14 -6t6 -14zM233 116q3 5 8 5q8 0 10.5 -5t-0.5 -10q-27 -46 -67 -88t-107 -105v-175q0 -39 -22.5 -63.5t-54.5 -24.5q-34 0 -50.5 26t-16.5 59q0 47 32 91.5t92 98.5v159v99l-49 -77q-3 -5 -8 -5 t-9 3.5t1 11.5l65 102v40q0 9 10 9t10 -9v-174v-141q73 67 105.5 103.5t50.5 69.5zM-47 -265q0 -29 11.5 -47t35.5 -18q23 0 40 18t17 50v157q-49 -48 -76.5 -86.5t-27.5 -73.5zM-9 8h451v-6h-451v6zM-8 265h448v-6h-448v6zM-9 15h452v-15h-452v15zM-8 275h450v-15h-450v15z " />
<glyph unicode="k" horiz-adv-x="400" d="M9 106q-3 -5 -8 -5q-8 0 -10.5 5t0.5 10q24 39 42 69t30 52v266q0 68 12 100t47 32q28 -3 45 -36.5t17 -86.5v-23q-3 -17 -8 -45t-31 -88.5t-62 -123.5v-33q17 27 41.5 43.5t47.5 16.5q36 0 57 -7.5t21 -39.5q0 -27 -29 -49.5t-73 -32.5q29 -12 65 -67.5t59 -52.5 q25 0 54 23.5t48.5 55.5t24.5 32q8 0 10.5 -5t-0.5 -10q-38 -62 -71.5 -89t-65.5 -27q-35 3 -79.5 65.5t-77.5 62.5q-9 0 -9 7l-23 2v-127q0 -9 -10 -9t-10 9v131l-1 6l1 12v47zM172 239q-23 0 -53.5 -31.5t-35.5 -61.5q6 -1 18 -1q50 0 91 23.5t38 43.5q0 16 -14.5 21.5 t-43.5 5.5zM160 468q4 23 4 48q0 43 -13.5 72t-28.5 27q-19 0 -29 -26t-10 -86v-228q28 53 49.5 103.5t27.5 89.5zM-10 8h451v-6h-451v6zM-8 265h448v-6h-448v6zM-9 15h451v-15h-451v15zM-8 275h449v-15h-449v15z" />
<glyph unicode="l" horiz-adv-x="257" d="M122 635q28 -3 45 -36.5t17 -86.5v-23q-3 -17 -7.5 -44t-31.5 -88.5t-62 -124.5v-109q0 -59 8.5 -86.5t36.5 -27.5q25 0 54 23t49 56t25 33q8 0 10.5 -5t-0.5 -10q-40 -65 -73.5 -91t-64.5 -26q-44 0 -54.5 34.5t-10.5 99.5v73l-54 -90q-3 -5 -8 -5q-8 0 -10.5 5t0.5 10 l72 121v266q0 68 12 100t47 32zM160 468q2 10 3 22t1 23q0 45 -14.5 75.5t-27.5 26.5q-19 0 -29 -26t-10 -86v-228q28 52 49 102.5t28 90.5zM-12 8h451v-6h-451v6zM-8 265h448v-6h-448v6zM-9 15h450v-15h-450v15zM-8 275h449v-15h-449v15z" />
<glyph unicode="m" horiz-adv-x="663" d="M256 260q28 0 42 -25t14 -55v-19q24 41 55 69.5t67 28.5q28 0 42 -25t14 -55v-76q0 -55 9.5 -74.5t35.5 -19.5q27 0 59 28t47.5 56t20.5 28q8 0 10.5 -5t-0.5 -10q-33 -58 -66 -87.5t-71 -29.5q-36 0 -50.5 29t-14.5 85v76q0 23 -10.5 41.5t-25.5 18.5q-34 0 -68.5 -38.5 t-54.5 -81.5l1 -117q0 -9 -10 -9t-10 9v178q0 23 -10.5 41.5t-25.5 18.5q-33 0 -67.5 -39t-54.5 -81v-119q0 -9 -10 -9t-10 9v178q0 27 -3.5 42.5t-12.5 16.5q-10 0 -37.5 -44.5t-41 -68t-18.5 -23.5t-9 4.5t-1 9.5q29 47 59 93.5t48 50.5q22 -5 29 -27.5t7 -53.5v-17 q24 41 55 69.5t67 28.5zM-11 7h684v-6h-684v6zM-7 265h680v-6h-680v6zM-9 15h681v-15h-681v15zM-8 275h679v-15h-679v15z" />
<glyph unicode="n" horiz-adv-x="486" d="M134 0q0 -9 -10 -9t-10 9v178q0 26 -3.5 41.5t-12.5 18.5q-11 0 -43.5 -55t-40.5 -68.5t-13 -13.5q-8 0 -10.5 5t0.5 10q27 45 57 92.5t52 51.5q20 -5 27 -28t7 -54v-17q24 42 54.5 70.5t67.5 28.5q28 0 42 -26t14 -56v-94q0 -74 44 -74q26 0 54.5 21t49 55.5t25.5 34.5 q8 0 10.5 -5t-0.5 -10q-40 -66 -74 -91t-65 -25t-47.5 26.5t-16.5 67.5v94q0 22 -11 42t-25 20q-34 0 -68 -38.5t-55 -82.5zM-10 8h508v-6h-508v6zM-8 265h505v-6h-505v6zM-9 15h506v-15h-506v15zM-8 275h504v-15h-504v15z" />
<glyph unicode="o" horiz-adv-x="392" d="M267 114q0 -16 -6 -33q22 -5 39 -5q27 0 49.5 9.5t30.5 22.5t13 13t9 -3.5t-1 -11.5q-16 -25 -43 -37.5t-57 -12.5q-10 0 -22.5 2t-25.5 5q-18 -32 -52.5 -52.5t-71.5 -20.5q-56 0 -97 31.5t-41 90.5q0 54 32.5 93.5t60.5 44t37.5 6t15.5 1.5q21 0 44 -7t47 -23 q21 -19 30 -48t9 -65zM161 193q-5 -22 17 -54.5t55 -47.5l9 -3q5 12 5 26q0 38 -5.5 57.5t-25.5 40.5q-17 12 -28 12q-17 0 -27 -31zM11 112q0 -50 33.5 -76t84.5 -26q30 0 58.5 16.5t45.5 43.5l-8 3q-35 17 -60 50t-25 64q0 7 1 10q0 11 4.5 19t14.5 17q-9 4 -25 4h-12 q-8 -2 -32 -6t-52 -38t-28 -81zM-10 7h451v-6h-451v6zM-7 265h448v-6h-448v6zM-8 15h448v-15h-448v15zM-7 275h446v-15h-446v15z" />
<glyph unicode="p" horiz-adv-x="462" d="M77 -372q0 -9 -10 -9t-10 9v555l-49 -77q-3 -5 -8 -5t-9 3.5t1 11.5l65 102v41q0 9 10 9t10 -9v-150q25 57 67.5 103.5t73.5 49.5q29 0 49.5 -21.5t20.5 -51.5v-111q0 -28 11.5 -48.5t31.5 -20.5q30 0 57.5 23.5t48 56t25.5 32.5t9 -3.5t-1 -11.5q-40 -62 -71 -89.5 t-68 -27.5q-32 0 -47.5 27.5t-15.5 61.5v111q0 21 -15 37t-35 16q-26 4 -83.5 -77.5t-57.5 -137.5v-399zM-12 7h487v-6h-487v6zM-8 265h485v-6h-485v6zM-9 15h488v-15h-488v15zM-8 275h486v-15h-486v15z" />
<glyph unicode="q" horiz-adv-x="371" d="M93 -10q-43 0 -73 26.5t-30 72.5q0 38 17.5 69.5t52.5 55t82.5 35t104.5 11.5q10 0 10 -10v-238q42 10 106 105q4 7 12 1t4 -13q-38 -54 -64.5 -80.5t-57.5 -33.5v-364q0 -9 -10 -9t-10 9v448q-22 -36 -59.5 -60.5t-84.5 -24.5zM238 240q-101 0 -148.5 -32t-63.5 -59.5 t-16 -59.5q0 -37 23 -58t60 -21q49 0 92.5 39.5t52.5 76.5v114zM-9 7h451v-6h-451v6zM-8 265h448v-6h-448v6zM-9 15h452v-15h-452v15zM-8 275h450v-15h-450v15z" />
<glyph unicode="r" horiz-adv-x="317" d="M145 171q-8 -24 -14.5 -57t-6.5 -54q0 -23 17 -37t39 -14q36 0 62.5 23t48 56t26.5 33t8 -4.5t0 -10.5q-39 -62 -70 -89.5t-75 -27.5q-29 0 -52.5 19.5t-23.5 51.5q0 25 7 58t13 52t6 27q0 16 -15 23q-22 7 -35 11q-11 -29 -38 -72t-31.5 -50.5t-9.5 -7.5q-8 0 -10.5 5 t0.5 10q8 14 35 59.5t35 63.5q-29 20 -29 51q0 13 7 23.5t21 10.5q15 0 23 -12.5t8 -26.5q0 -16 -5 -36q31 -8 48 -17.5t17 -34.5q0 -11 -6 -26zM60 303q-8 -3 -8 -13q0 -16 16 -30l3 25q0 17 -11 18zM-9 8h451v-6h-451v6zM-8 265h448v-6h-448v6zM-9 15h451v-15h-451v15z M-8 275h449v-15h-449v15z" />
<glyph unicode="s" horiz-adv-x="314" d="M221 96l-2 -22q20 0 52.5 14t38 23.5t10.5 9.5t9 -3.5t-1 -11.5q-14 -20 -45 -36t-55 -16h-15q-11 -27 -31.5 -44.5t-45.5 -17.5q-33 0 -49.5 11.5t-16.5 28.5q0 25 30 34q13 6 28 8.5t34 2.5h25q9 -2 13 -2q1 2 1 10v9q0 28 -42 58t-82 58q-14 -25 -29.5 -50.5 t-25.5 -42t-15 -16.5q-8 0 -10.5 5t0.5 10q5 9 30.5 50.5t33.5 56.5q-14 13 -22.5 27.5t-8.5 29.5q0 12 9.5 24.5t22.5 12.5q22 0 31 -15t9 -31q0 -6 -5 -18.5t-11 -26.5l82 -54q47 -36 53 -76zM64 297q-14 0 -14 -18q0 -9 6 -20t14 -19q4 9 8 21t3 19q-2 17 -17 17zM134 8 q15 0 31.5 14.5t27.5 33.5h-32q-19 0 -30 -1t-25 -8t-14 -19q0 -20 42 -20zM-10 7h456v-6h-456v6zM-7 265h453v-6h-453v6zM-12 15h459v-15h-459v15zM-12 275h458v-15h-458v15z" />
<glyph unicode="t" horiz-adv-x="251" d="M57 311h-57q-9 0 -9 10t9 10h57v173q0 9 10 9t10 -9v-173h76q9 0 9 -10t-9 -10h-76v-189q0 -61 7 -87t40 -26q23 0 51.5 23t49.5 56t26 33t8 -4.5t0 -10.5q-40 -64 -72 -90.5t-63 -26.5q-42 0 -54.5 29t-12.5 79v25v60l-49 -76q-3 -5 -8 -5t-9 3.5t1 11.5l65 102v93z M-10 7h451v-6h-451v6zM-8 265h448v-6h-448v6zM-9 15h451v-15h-451v15zM-8 275h449v-15h-449v15z" />
<glyph unicode="u" horiz-adv-x="413" d="M219 250q0 9 10 9t10 -9v-178q0 -29 12.5 -45.5t31.5 -16.5q27 0 57 23.5t48.5 55.5t23.5 32q8 0 10.5 -5t-0.5 -10q-35 -60 -70.5 -88t-68.5 -28q-29 0 -46.5 23.5t-17.5 58.5v23q-32 -46 -74 -75.5t-79 -29.5q-31 0 -53.5 26.5t-22.5 58.5v175q0 9 10 9t10 -9v-175 q0 -24 17.5 -44.5t38.5 -20.5q34 0 81 37.5t72 86.5v116zM-9 6h466v-6h-466v6zM-8 265h463v-6h-463v6zM-9 15h467v-15h-467v15zM-8 275h465v-15h-465v15z" />
<glyph unicode="v" horiz-adv-x="492" d="M394 76q33 0 54.5 8.5t29.5 22.5t13 14q8 0 10.5 -5t-0.5 -10q-16 -27 -44 -38.5t-63 -11.5q-26 0 -49 15q-14 -37 -41.5 -59.5t-63.5 -22.5q-73 0 -99.5 40.5t-26.5 127.5q0 25 -4.5 42.5t-12.5 19.5q-12 -2 -38 -36.5t-39.5 -57.5t-18.5 -23t-9 4.5t-1 9.5 q41 62 64 91.5t44 32.5q21 -5 28 -27.5t7 -55.5q0 -83 23.5 -115.5t82.5 -32.5q29 0 51 19.5t36 54.5q-47 38 -60 88q-1 12 -1 20q0 24 6.5 39t26.5 19q22 0 41.5 -17.5t19.5 -54.5q0 -26 -1.5 -46.5t-6.5 -38.5q9 -6 20 -11t22 -5zM299 229q-4 -3 -7 -5q-7 -15 -7 -36 q0 -7 3 -19.5t16 -30.5t31 -33q6 24 6 51q0 13 -2.5 33t-12.5 30t-27 10zM-9 7h514v-6h-514v6zM-8 265h511v-6h-511v6zM-9 15h515v-15h-515v15zM-8 275h513v-15h-513v15z" />
<glyph unicode="w" horiz-adv-x="710" d="M702 116q3 5 8 5t8 -4.5t0 -10.5q-17 -27 -42 -39t-54 -12q-17 0 -34 3l-29 12q-40 -82 -103 -82q-53 0 -82 31.5t-37 81.5q-15 -53 -35.5 -82.5t-61.5 -29.5q-67 0 -96.5 44.5t-29.5 142.5q0 22 -5.5 31.5t-12.5 9.5q-8 0 -37 -38.5t-51 -73.5q-5 -7 -13 -1t-3 13 q51 73 69 96t36 27q17 0 27 -18.5t10 -45.5q0 -93 26.5 -130t79.5 -37q49 0 71 96t26 96q10 -48 26 -120.5t93 -72.5q23 0 47 20.5t39 53.5q-51 38 -57 71t-6 41q0 25 9.5 40.5t31.5 15.5q33 0 45.5 -28.5t12.5 -67.5q0 -15 -3 -32.5t-8 -33.5l12.5 -5t13.5 -5t13 -3t17 -1 q23 0 43.5 9.5t35.5 32.5zM520 230q-8 0 -14 -11.5t-6 -27.5q0 -8 2 -19.5t16 -33.5t31 -37q3 13 6 27t3 26q0 31 -9.5 53.5t-28.5 22.5zM-8 6h737v-6h-737v6zM-8 265h734v-6h-734v6zM-9 15h736v-15h-736v15zM-8 275h733v-15h-733v15z" />
<glyph unicode="x" horiz-adv-x="514" d="M505 116q3 5 8 5q8 0 10.5 -5t-0.5 -10q-39 -64 -84.5 -90t-91.5 -26q-40 0 -68 26t-39 63q-14 -40 -40.5 -65.5t-66.5 -25.5q-23 0 -41.5 14t-18.5 38q0 28 18.5 46t41.5 25t49.5 10t46.5 5q0 49 -24.5 81t-64.5 32q-35 0 -73.5 -50.5t-50 -68.5t-16.5 -18t-8 4.5t0 9.5 q43 67 75.5 105t72.5 38q37 0 62.5 -20.5t37.5 -55.5q11 31 37 53.5t62 22.5q32 0 55 -12t23 -41q0 -25 -16.5 -42t-41.5 -27.5t-49 -16.5t-56 -11q4 -40 31 -69.5t62 -29.5q41 0 81.5 23t76.5 83zM144 92q-22 -6 -36.5 -19.5t-14.5 -32.5q0 -12 12.5 -22t27.5 -10 q34 0 60.5 29t32.5 69q-21 -2 -40.5 -4.5t-41.5 -9.5zM353 155q20 9 32 21.5t12 29.5q0 15 -16.5 24t-41.5 9q-37 0 -62.5 -32.5t-25.5 -77.5q30 4 52 9t50 17zM-11 8h539v-6h-539v6zM-8 265h536v-6h-536v6zM-9 15h541v-15h-541v15zM-8 275h539v-15h-539v15z" />
<glyph unicode="y" horiz-adv-x="421" d="M82 -11q-37 0 -64.5 28.5t-27.5 58.5v173q0 9 10 9t10 -9v-173q0 -18 23 -42.5t49 -24.5q60 0 100.5 36t53.5 85v119q0 9 10 9t10 -9v-115v-192q65 63 99.5 99.5t47 58t17.5 21.5q8 0 10.5 -5t-0.5 -10q-22 -35 -51 -68t-123 -124v-154q0 -46 -17 -78t-58 -32 q-69 0 -69 98q0 36 32.5 78.5t91.5 96.5v155q-23 -39 -62 -64t-92 -25zM132 -252q0 -47 10.5 -62.5t38.5 -15.5q27 0 41 25.5t14 64.5v135q-46 -43 -75 -82t-29 -65zM-9 7h443v-6h-443v6zM-8 265h441v-6h-441v6zM-9 15h447v-15h-447v15zM-8 275h445v-15h-445v15z" />
<glyph unicode="z" horiz-adv-x="340" d="M129 -378q-34 0 -47.5 23.5t-13.5 54.5q0 9 1.5 18t9 44t43 93t88.5 114q-11 31 -33.5 47t-53.5 16q-21 0 -45 -9q-6 0 -11 6t0 10q24 23 56.5 79t51.5 97q-18 -3 -42 -3q-44 0 -58 10q-12 -27 -31 -58.5t-28.5 -47t-14.5 -15.5q-8 0 -10.5 5t0.5 10q20 32 36.5 59 t29.5 55q-31 21 -31 58q0 17 10 27t21 10q15 0 24.5 -11.5t9.5 -26.5q0 -20 -8 -46q9 -5 22.5 -7t29.5 -2q31 0 55 6q11 0 11 -14q-19 -40 -43.5 -87t-55.5 -87q14 2 21 2q35 0 61.5 -16.5t39.5 -50.5q64 70 80 90t23 33t12 13q8 0 10.5 -5t-0.5 -10q-18 -33 -59 -78 t-57 -63q8 -32 8 -62q0 -34 -15 -96.5t-41.5 -121t-55.5 -63.5zM71 287q0 18 -14 18q-11 0 -11 -17q0 -12 3.5 -19.5t15.5 -17.5q6 22 6 36zM91 -274q-1 -5 -1 -11.5v-10.5q0 -27 5 -38.5t10.5 -18t18.5 -6.5q16 -3 44.5 57.5t39.5 117t11 90.5q0 19 -3 39 q-50 -56 -82 -108.5t-43 -110.5zM-10 8h451v-6h-451v6zM-8 265h448v-6h-448v6zM-9 15h448v-15h-448v15zM-8 275h446v-15h-446v15z" />
<glyph unicode="{" horiz-adv-x="280" d="M238 347q0 -48 -6 -79t-28 -46q20 -21 27 -66.5t7 -91.5q0 -77 8 -127.5t30 -78.5q2 -3 0 -9.5t-9 -6.5q-4 0 -18.5 18t-22.5 71t-8 133q0 48 -10 98.5t-26 50.5q-7 0 -7 10t7 10q17 0 26.5 34t9.5 80q0 99 6 147.5t36 87.5q5 7 13 1t3 -13q-25 -32 -31.5 -83t-6.5 -140z M83 7h451v-6h-451v6zM84 265h448v-6h-448v6zM83 15h454v-15h-454v15zM84 275h452v-15h-452v15z" />
<glyph unicode="|" horiz-adv-x="816" />
<glyph unicode="}" horiz-adv-x="280" d="M276 347q0 -50 9 -82t27 -32q7 0 7 -10t-7 -10q-16 0 -26 -50t-10 -99q0 -80 -8 -132.5t-34 -85.5q-5 -7 -13 -1t-3 13q21 26 29.5 80t8.5 126q0 50 6.5 93t27.5 65q-20 14 -27 47.5t-7 77.5q0 95 -6 142.5t-32 80.5q-2 3 0 9.5t9 6.5q4 0 20 -21t22.5 -74t6.5 -144z M101 7h451v-6h-451v6zM104 265h448v-6h-448v6zM103 15h452v-15h-452v15zM104 275h450v-15h-450v15z" />
<glyph unicode="~" horiz-adv-x="360" d="M182 383q2 -5 13.5 -8t26.5 -3q22 0 22 9q3 4 8 4t9 -4.5t1 -9.5q-7 -10 -18 -14.5t-25 -4.5q-15 0 -28.5 5t-22.5 12q-15 17 -43 17q-22 0 -27 -14q-3 -5 -8 -5q-4 0 -8 4t-2 9q14 26 46 26q33 0 56 -23z" />
<glyph unicode="&#xa1;" horiz-adv-x="178" d="M180 356q0 -18 -20 -18q-7 0 -13 5t-6 13q0 5 4.5 12.5t14.5 7.5q8 0 14 -6t6 -14zM150 240q0 9 10 9t10 -9v-491q0 -9 -10 -9t-10 9v491zM66 5h451v-6h-451v6zM67 265h448v-6h-448v6zM66 15h457v-15h-457v15zM67 275h455v-15h-455v15z" />
<glyph unicode="&#xa2;" horiz-adv-x="397" d="M267 255q9 0 9 -10t-9 -10q-3 0 -9 2t-23 2v-230q64 0 92 26t65 82q4 7 12 1t4 -13q-38 -56 -70 -86t-103 -30v-79q0 -9 -10 -9t-10 9v80q-57 6 -99.5 39.5t-42.5 94.5q0 59 41.5 97.5t99.5 38.5l1 63q0 9 10 9t10 -9v-64q15 0 21.5 -0.5t10.5 -3.5zM93 124 q0 -51 35.5 -80t85.5 -34v230q-49 0 -85 -33t-36 -83zM30 7h451v-6h-451v6zM35 265h448v-6h-448v6zM34 15h448v-15h-448v15zM35 275h446v-15h-446v15z" />
<glyph unicode="&#xa3;" horiz-adv-x="672" d="M462 10q58 0 86.5 23t69.5 84q4 7 12 1t4 -13q-49 -74 -85 -94.5t-87 -20.5q-58 0 -112 26q-42 23 -66 35l-24 13q-61 -72 -121 -72q-41 0 -57 11.5t-16 37.5q0 32 23.5 49t56.5 17q38 0 59.5 -3t43.5 -13q3 10 7 21q5 25 5 38q0 45 -43 89t-73 75h-81q-9 0 -9 10t9 10 h65q-16 24 -24 44.5t-8 46.5q0 90 79.5 149.5t174.5 59.5q103 0 176 -64t73 -139q0 -9 -10 -9t-10 9q0 64 -67 123.5t-162 59.5q-87 0 -160.5 -55t-73.5 -134q0 -25 10.5 -46.5t29.5 -44.5h181q9 0 9 -10t-9 -10l-163 -1q59 -59 82.5 -89t23.5 -74q0 -34 -12 -67l23 -14 q43 -22 86 -43q39 -16 84 -16zM86 41q0 -18 14.5 -23.5t38.5 -5.5q20 0 50 17.5t49 42.5q-20 9 -37.5 12t-54.5 3q-60 0 -60 -46zM23 7h621v-6h-621v6zM24 265h618v-6h-618v6zM23 15h623v-15h-623v15zM24 275h621v-15h-621v15z" />
<glyph unicode="&#xa4;" horiz-adv-x="1025" />
<glyph unicode="&#xa5;" horiz-adv-x="599" d="M593 63q9 0 9 -11q0 -10 -9 -10h-25v-59h25q9 0 9 -10t-9 -10h-25v-170q0 -70 -23 -124t-86 -54q-49 0 -77.5 34.5t-28.5 88.5q0 9 10 9t10 -9q0 -48 22.5 -75.5t63.5 -27.5q48 0 68.5 48t20.5 110v170h-31h-72q-9 0 -9 10t9 10h72h31v60h-31h-72q-9 0 -9 10t9 10h72h31 v240q-31 -76 -78 -133t-113 -57q-57 0 -87.5 35.5t-30.5 100.5v273q0 47 -15.5 70t-42.5 23q-42 0 -61 -35t-31 -72q0 -7 -7 -7q-13 0 -13 11q11 41 33 82t77 41q38 0 59 -30t21 -83v-273q0 -43 18 -79.5t80 -36.5q56 0 108 66t83 167v255q0 9 10 9t10 -9v-254v-304h25z M30 6h586v-6h-586v6zM31 265h583v-6h-583v6zM30 15h582v-15h-582v15zM31 275h579v-15h-579v15z" />
<glyph unicode="&#xa7;" horiz-adv-x="647" d="M416 413q34 -9 56 -29.5t26 -45.5q60 -23 90 -57t30 -104q0 -57 -73 -122.5t-194 -65.5q-116 0 -198 51.5t-82 135.5q0 9 10 9t10 -9q0 -70 76.5 -118.5t183.5 -48.5q112 0 179.5 60.5t67.5 107.5q0 61 -23 88t-78 52q0 -8 -2.5 -14t-16 -22t-50 -29t-76.5 -13 q-30 0 -65 9.5t-57.5 32t-22.5 50.5q0 12 6 24q-38 11 -65.5 39.5t-27.5 75.5q0 77 64 121.5t151 44.5q77 0 119.5 -9.5t87.5 -44.5q7 -5 1 -13t-13 -3q-42 32 -81.5 41t-113.5 9q-81 0 -138 -39.5t-57 -106.5q0 -40 24.5 -64.5t58.5 -33.5q20 23 56 36t76 13q29 0 61 -8z M468 300q11 14 11 29q0 43 -49 57.5t-77 14.5q-37 0 -68.5 -11t-44 -27.5t-12.5 -32.5q0 -43 48.5 -57t77.5 -14q37 0 68.5 11t45.5 30zM30 7h592v-6h-592v6zM33 265h590v-6h-590v6zM32 15h589v-15h-589v15zM33 275h587v-15h-587v15z" />
<glyph unicode="&#xa8;" horiz-adv-x="339" d="M249 339q0 -18 -20 -18q-7 0 -13 5t-6 13q0 5 4.5 12.5t14.5 7.5q8 0 14 -6t6 -14zM142 339q0 -18 -20 -18q-7 0 -13 5t-6 13q0 5 4.5 12.5t14.5 7.5q8 0 14 -6t6 -14z" />
<glyph unicode="&#xa9;" horiz-adv-x="464" d="M389 204q-53 -36 -116 -36q-48 0 -92.5 22.5t-77 69t-32.5 108.5q0 49 22.5 93.5t69.5 77t109 32.5q49 0 93.5 -22.5t77 -69.5t32.5 -109q0 -49 -22.5 -93t-63.5 -73zM377 220q37 25 57.5 66t20.5 85q0 28 -7.5 52.5t-28.5 55.5t-62 51.5t-85 20.5q-29 0 -53.5 -7 t-55.5 -28.5t-51.5 -62.5t-20.5 -85q0 -29 7 -53.5t29 -55.5t62 -51t84 -20q59 0 104 32zM279 490q-56 0 -86.5 -38.5t-30.5 -80.5q0 -32 9.5 -54.5t27 -34.5t39.5 -17t39 -5q37 0 55 7t28.5 22.5t15.5 15.5t8 -4.5t0 -10.5q-19 -32 -43 -41t-64 -9q-22 0 -45.5 5.5 t-45 20.5t-33 42.5t-11.5 62.5q0 28 6 46.5t35 55.5t96 37q25 0 40.5 -5.5t33.5 -23.5q7 -6 0 -13t-14 -1q-14 13 -28 18t-32 5zM30 7h451v-6h-451v6zM33 265h448v-6h-448v6zM32 15h451v-15h-451v15zM33 275h449v-15h-449v15z" />
<glyph unicode="&#xaa;" horiz-adv-x="302" d="M209 486q0 -34 22 -34q19 0 33.5 17t26.5 36q2 4 6.5 1.5t2.5 -6.5q-11 -20 -27.5 -39.5t-41.5 -19.5q-14 0 -22 11t-10 28q-11 -18 -30.5 -28t-36.5 -10q-22 0 -39 11.5t-17 34.5q0 39 38 64t90 25q2 0 4 -2q0 -2 1 -3v-86zM86 488q0 -17 13.5 -26.5t32.5 -9.5 q21 0 44 17.5t23 46.5v51q-47 0 -80 -23t-33 -56zM302 406q9 0 9 -10t-9 -10h-222q-9 0 -9 10t9 10h222zM31 7h451v-6h-451v6zM32 265h448v-6h-448v6zM31 15h453v-15h-453v15zM32 275h451v-15h-451v15z" />
<glyph unicode="&#xab;" horiz-adv-x="208" d="M162 111l48 -49q6 -6 -1 -13t-13 -1l-55 56q-6 8 0 14l58 58q7 7 14 0t0 -14zM92 111l48 -49q6 -6 -1 -13t-13 -1l-55 56q-6 8 0 14l58 58q7 7 14 0t0 -14zM27 7h451v-6h-451v6zM30 265h448v-6h-448v6zM29 15h450v-15h-450v15zM30 275h448v-15h-448v15z" />
<glyph unicode="&#xac;" horiz-adv-x="392" d="M-10 7h451v-6h-451v6zM-9 265h448v-6h-448v6zM-10 15h452v-15h-452v15zM-9 275h450v-15h-450v15z" />
<glyph unicode="&#xae;" horiz-adv-x="464" d="M388 204q-53 -36 -116 -36q-48 0 -92.5 22.5t-77 69t-32.5 108.5q0 49 22.5 93.5t69.5 77t109 32.5q49 0 93.5 -22.5t77 -69.5t32.5 -109q0 -49 -22.5 -93t-63.5 -73zM329 445q0 29 -11 41t-46 12q-39 0 -64 -34t-25 -64l-1 -4v-139q0 -9 -10 -9t-10 9v248q0 9 10 9 t10 -9v-42q14 24 37 39.5t53 15.5q39 0 58 -20.5t19 -52.5q0 -20 -14.5 -34.5t-49.5 -21.5q12 0 29.5 -9t24.5 -17q12 -19 16 -38.5t4 -36.5q0 -22 22 -22q23 0 37.5 8.5t18.5 31.5q0 6 8 6q9 27 9 58q0 57 -28.5 98.5t-69.5 62t-85 20.5q-29 0 -53.5 -7t-55.5 -28.5 t-51.5 -62.5t-20.5 -85q0 -29 7 -53.5t29 -55.5t62 -51t84 -20q59 0 86 19t36.5 27.5t17.5 17.5q-3 -2 -12.5 -4t-18.5 -2q-23 0 -32.5 13.5t-9.5 28.5t-3 32t-10.5 28.5t-24.5 17.5t-35.5 10.5t-24.5 7.5t-6 8q0 6 11.5 7t31.5 4.5t34.5 15.5t16.5 26zM30 7h451v-6h-451v6z M32 265h448v-6h-448v6zM31 15h449v-15h-449v15zM32 275h447v-15h-447v15z" />
<glyph unicode="&#xb0;" horiz-adv-x="290" d="M251 325q-15 0 -26.5 10.5t-11.5 26.5t11 27t27 11t27 -11t11 -27t-11.5 -26.5t-26.5 -10.5zM251 345q18 0 18 17q0 7 -5.5 12.5t-12.5 5.5t-12.5 -5.5t-5.5 -12.5t5 -12t13 -5zM103 265h448v-6h-448v6zM102 15h450v-15h-450v15zM103 275h448v-15h-448v15z" />
<glyph unicode="&#xb1;" horiz-adv-x="300" d="M216 62h76q9 0 9 -10t-9 -10h-76h-72q-9 0 -9 10t9 10h72zM206 260q0 9 10 9t10 -9v-65h66q9 0 9 -10t-9 -10h-66v-65q0 -9 -10 -9t-10 9v65h-62q-9 0 -9 10t9 10h62v65zM62 7h451v-6h-451v6zM65 265h448v-6h-448v6zM64 15h450v-15h-450v15zM65 275h448v-15h-448v15z" />
<glyph unicode="&#xb4;" horiz-adv-x="306" d="M182 400q6 7 13 0t1 -14l-72 -78q-6 -7 -13 0t-1 14z" />
<glyph unicode="&#xb5;" horiz-adv-x="652" />
<glyph unicode="&#xb6;" horiz-adv-x="441" d="M225 0q0 -9 -10 -9t-10 9v348q-62 0 -95.5 35.5t-33.5 86.5t37 90t102 39h189q2 0 4.5 -2t3.5 -3l3 -7v-587q0 -9 -10 -9t-10 9v578h-170v-578zM205 578q-51 0 -79.5 -31.5t-28.5 -74.5q0 -42 28.5 -73t79.5 -31v210zM32 6h451v-6h-451v6zM36 265h448v-6h-448v6zM35 15 h449v-15h-449v15zM36 275h448v-15h-448v15z" />
<glyph unicode="&#xba;" horiz-adv-x="292" d="M219 533q33 0 63 19q4 3 7 -1t-1 -7q-11 -7 -26.5 -13t-40.5 -8l1 -22q0 -25 -21.5 -43.5t-47.5 -18.5q-29 0 -49 15.5t-20 45.5q0 27 16 47t42 24h14q14 0 23 -1.5t18 -7.5t13.5 -12.5t8.5 -16.5zM184 535l25 -3q-3 8 -6.5 13t-14.5 11q-15 4 -22 5.5t-13 0.5 q-9 -20 31 -27zM94 500q0 -24 17.5 -37.5t41.5 -13.5q21 0 40 16t19 36l-1 22l-29 2q-40 6 -40 30l2 6q-50 -8 -50 -61zM294 406q9 0 9 -10t-9 -10h-212q-9 0 -9 10t9 10h212zM31 6h451v-6h-451v6zM34 265h448v-6h-448v6zM33 15h450v-15h-450v15zM34 275h448v-15h-448v15z " />
<glyph unicode="&#xbb;" horiz-adv-x="208" d="M142 118q6 -6 0 -14l-55 -56q-6 -7 -13 0t-1 14l48 49l-51 51q-6 7 1 14t13 0zM212 118q6 -6 0 -14l-55 -56q-6 -7 -13 0t-1 14l48 49l-51 51q-6 7 1 14t13 0zM27 7h451v-6h-451v6zM29 265h448v-6h-448v6zM28 15h452v-15h-452v15zM29 275h450v-15h-450v15z" />
<glyph unicode="&#xbf;" horiz-adv-x="426" d="M356 358q0 -18 -20 -18q-7 0 -13 5t-6 13q0 5 4.5 12.5t14.5 7.5q8 0 14 -6t6 -14zM279 -264q-62 0 -102 40t-40 108q0 67 76.5 138t90.5 93t19 48.5t5 58.5v19q0 10 11 10q9 0 9 -9q1 -14 1 -24q0 -38 -8.5 -66t-24 -52t-87.5 -92t-72 -124q0 -60 34 -94t88 -34 q57 0 98.5 36.5t41.5 91.5q0 9 10 9t10 -9q0 -64 -47 -106t-113 -42zM62 7h451v-6h-451v6zM67 265h448v-6h-448v6zM66 15h451v-15h-451v15zM67 275h449v-15h-449v15z" />
<glyph unicode="&#xc0;" horiz-adv-x="785" d="M320 715q-6 6 1 13t13 1l72 -78q6 -6 -1 -13t-13 -1zM695 10q33 0 60.5 28t60.5 79q4 7 12 1t4 -13q-41 -61 -67.5 -88t-69.5 -27q-50 0 -68 43t-18 105v141q-39 -130 -145 -210t-214 -80q-64 0 -122.5 49t-58.5 172q0 90 54 174t140 146.5t166 81.5t190 19q10 0 10 -10 v-483q0 -57 15 -92.5t51 -35.5zM283 520q-91 -65 -142.5 -145t-51.5 -165q0 -117 50 -159t111 -42q125 0 242.5 113.5t117.5 284.5v204q-103 0 -177.5 -18.5t-149.5 -72.5zM30 5h805v-6h-805v6zM31 265h803v-6h-803v6zM30 15h804v-15h-804v15zM31 275h802v-15h-802v15z" />
<glyph unicode="&#xc1;" horiz-adv-x="785" d="M442 735q6 7 13 0t1 -14l-72 -78q-6 -7 -13 0t-1 14zM695 10q33 0 60.5 28t60.5 79q4 7 12 1t4 -13q-41 -61 -67.5 -88t-69.5 -27q-50 0 -68 43t-18 105v141q-39 -130 -145 -210t-214 -80q-64 0 -122.5 49t-58.5 172q0 90 54 174t140 146.5t166 81.5t190 19q10 0 10 -10 v-483q0 -57 15 -92.5t51 -35.5zM283 520q-91 -65 -142.5 -145t-51.5 -165q0 -117 50 -159t111 -42q125 0 242.5 113.5t117.5 284.5v204q-103 0 -177.5 -18.5t-149.5 -72.5zM30 5h805v-6h-805v6zM31 265h803v-6h-803v6zM30 15h804v-15h-804v15zM31 275h802v-15h-802v15z" />
<glyph unicode="&#xc2;" horiz-adv-x="785" d="M372 724q-24 -27 -37.5 -42t-28.5 -28q-5 -4 -10.5 -1t-5.5 9q0 5 11 14t29.5 30t33.5 40q0 3 8 3t8 -3q8 -11 27 -33.5t43 -42.5q7 -6 1 -14t-13 -2q-11 9 -29.5 28.5t-36.5 41.5zM695 10q33 0 60.5 28t60.5 79q4 7 12 1t4 -13q-41 -61 -67.5 -88t-69.5 -27 q-50 0 -68 43t-18 105v141q-39 -130 -145 -210t-214 -80q-64 0 -122.5 49t-58.5 172q0 90 54 174t140 146.5t166 81.5t190 19q10 0 10 -10v-483q0 -57 15 -92.5t51 -35.5zM283 520q-91 -65 -142.5 -145t-51.5 -165q0 -117 50 -159t111 -42q125 0 242.5 113.5t117.5 284.5 v204q-103 0 -177.5 -18.5t-149.5 -72.5zM30 5h805v-6h-805v6zM31 265h803v-6h-803v6zM30 15h804v-15h-804v15zM31 275h802v-15h-802v15z" />
<glyph unicode="&#xc3;" horiz-adv-x="785" d="M367 673q2 -5 13.5 -8t26.5 -3q22 0 22 9q3 4 8 4t9 -4.5t1 -9.5q-7 -10 -18 -14.5t-25 -4.5q-15 0 -28.5 5t-22.5 12q-15 17 -43 17q-22 0 -27 -14q-3 -5 -8 -5q-4 0 -8 4t-2 9q14 26 46 26q33 0 56 -23zM695 10q33 0 60.5 28t60.5 79q4 7 12 1t4 -13q-41 -61 -67.5 -88 t-69.5 -27q-50 0 -68 43t-18 105v141q-39 -130 -145 -210t-214 -80q-64 0 -122.5 49t-58.5 172q0 90 54 174t140 146.5t166 81.5t190 19q10 0 10 -10v-483q0 -57 15 -92.5t51 -35.5zM283 520q-91 -65 -142.5 -145t-51.5 -165q0 -117 50 -159t111 -42q125 0 242.5 113.5 t117.5 284.5v204q-103 0 -177.5 -18.5t-149.5 -72.5zM30 5h805v-6h-805v6zM31 265h803v-6h-803v6zM30 15h804v-15h-804v15zM31 275h802v-15h-802v15z" />
<glyph unicode="&#xc4;" horiz-adv-x="785" d="M464 684q0 -18 -20 -18q-7 0 -13 5t-6 13q0 5 4.5 12.5t14.5 7.5q8 0 14 -6t6 -14zM357 684q0 -18 -20 -18q-7 0 -13 5t-6 13q0 5 4.5 12.5t14.5 7.5q8 0 14 -6t6 -14zM695 10q33 0 60.5 28t60.5 79q4 7 12 1t4 -13q-41 -61 -67.5 -88t-69.5 -27q-50 0 -68 43t-18 105 v141q-39 -130 -145 -210t-214 -80q-64 0 -122.5 49t-58.5 172q0 90 54 174t140 146.5t166 81.5t190 19q10 0 10 -10v-483q0 -57 15 -92.5t51 -35.5zM283 520q-91 -65 -142.5 -145t-51.5 -165q0 -117 50 -159t111 -42q125 0 242.5 113.5t117.5 284.5v204q-103 0 -177.5 -18.5 t-149.5 -72.5zM30 5h805v-6h-805v6zM31 265h803v-6h-803v6zM30 15h804v-15h-804v15zM31 275h802v-15h-802v15z" />
<glyph unicode="&#xc5;" horiz-adv-x="785" d="M695 10q33 0 60.5 28t60.5 79q4 7 12 1t4 -13q-41 -61 -67.5 -88t-69.5 -27q-50 0 -68 43t-18 105v141q-39 -130 -145 -210t-214 -80q-64 0 -122.5 49t-58.5 172q0 90 54 174t140 146.5t166 81.5t190 19q10 0 10 -10v-483q0 -57 15 -92.5t51 -35.5zM283 520 q-91 -65 -142.5 -145t-51.5 -165q0 -117 50 -159t111 -42q125 0 242.5 113.5t117.5 284.5v204q-103 0 -177.5 -18.5t-149.5 -72.5zM424 655q-15 0 -26.5 10.5t-11.5 26.5t11 27t27 11t27 -11t11 -27t-11.5 -26.5t-26.5 -10.5zM424 675q18 0 18 17q0 7 -5.5 12.5t-12.5 5.5 t-12.5 -5.5t-5.5 -12.5t5 -12t13 -5zM30 15h808v-15h-808v15zM32 275h804v-15h-804v15z" />
<glyph unicode="&#xc6;" horiz-adv-x="1195" d="M917 636q77 0 119.5 -9.5t87.5 -44.5q7 -5 1 -13t-13 -3q-42 32 -81.5 41t-113.5 9q-81 0 -138 -39.5t-57 -106.5q0 -24 9.5 -44.5t26.5 -38.5q16 16 61 29t85 13q43 0 74.5 -12.5t31.5 -48.5q0 -35 -30 -46.5t-73 -11.5q-84 0 -152 50q-26 -23 -41.5 -55t-19.5 -73v-39 q10 -69 98.5 -126.5t188.5 -57.5q97 0 150.5 21t76.5 56t28 35t8 -4.5t0 -10.5q-44 -70 -103 -93.5t-160 -23.5q-87 0 -169 42t-118 104q0 -54 15.5 -89.5t50.5 -35.5q9 0 9 -10t-9 -10q-50 0 -68 43t-18 105v6q-45 11 -194.5 66.5t-252.5 55.5q-12 0 -35 -2t-33 -2 q0 -9 -2.5 -27.5t-2.5 -24.5q0 -79 15 -122.5t44 -82.5q2 -3 0 -9.5t-9 -6.5q-4 0 -25 27t-33 78.5t-12 115.5q0 8 2 27.5t2 20.5q-28 -7 -50 -28q-4 -3 -10.5 -1t-6.5 11q0 3 8.5 10.5t27 16t35.5 12.5q18 72 67.5 136.5t127 121t157.5 75.5t190 19q10 0 10 -10v-311 q8 16 20.5 33t26.5 30q-18 20 -28.5 44.5t-10.5 52.5q0 77 64 121.5t151 44.5zM674 192l-1 16l1 25l1 378q-103 0 -177.5 -18.5t-147 -70.5t-120 -112.5t-66.5 -126.5l63 3q80 0 145 -18t157 -54t145 -49v27zM907 330q34 0 58.5 9t24.5 29q0 21 -25 31t-61 10t-69 -9 t-61 -27q27 -20 63 -31.5t70 -11.5zM30 8h1224v-6h-1224v6zM34 265h1218v-6h-1218v6zM31 15h1221v-15h-1221v15zM34 275h1216v-15h-1216v15z" />
<glyph unicode="&#xc7;" horiz-adv-x="560" d="M95 28q2 6 8 6q3 0 8 -3.5t2 -10.5q-14 -35 -23.5 -53t-18.5 -31t-14 -13t-8 4.5t0 10.5q27 43 46 90zM318 614q-81 0 -136 -27t-98.5 -82t-58.5 -100t-15 -105q0 -84 24.5 -142t73 -91.5t100.5 -45.5t105 -12q96 0 144.5 19t73 56t29.5 37t8 -4.5t0 -10.5 q-46 -73 -102.5 -95t-152.5 -22q-56 0 -110 12t-106 48t-79.5 101.5t-27.5 149.5q0 63 16 111.5t61 106t105.5 87t145.5 29.5q53 0 93 -15t80 -53q7 -6 0 -13t-14 -1q-39 36 -74 49t-85 13zM-9 10h607v-6h-607v6zM-8 265h604v-6h-604v6zM-9 15h604v-15h-604v15zM-8 275h602 v-15h-602v15z" />
<glyph unicode="&#xc8;" horiz-adv-x="553" d="M205 726q-6 6 1 13t13 1l72 -78q6 -6 -1 -13t-13 -1zM327 368q0 -35 -30 -46.5t-73 -11.5q-38 0 -80 14.5t-72 37.5q-28 -26 -45 -66t-17 -88q0 -72 91.5 -135.5t196.5 -63.5q97 0 150.5 21t76.5 56t28 35t8 -4.5t0 -10.5q-44 -70 -103 -93.5t-160 -23.5 q-113 0 -210.5 67t-97.5 152q0 52 18.5 96.5t49.5 72.5q-19 21 -29 43.5t-10 49.5q0 77 64 121.5t151 44.5q77 0 119.5 -9.5t87.5 -44.5q7 -5 1 -13t-13 -3q-42 32 -81.5 41t-113.5 9q-81 0 -138 -39.5t-57 -106.5q0 -21 10.5 -43.5t25.5 -38.5q30 20 67.5 30.5t78.5 10.5 q43 0 74.5 -12.5t31.5 -48.5zM224 330q34 0 58.5 9t24.5 29q0 21 -25 31t-61 10q-37 0 -72.5 -9.5t-61.5 -26.5q25 -17 65.5 -30t71.5 -13zM-9 8h583v-6h-583v6zM-8 265h581v-6h-581v6zM-9 15h580v-15h-580v15zM-8 275h578v-15h-578v15z" />
<glyph unicode="&#xc9;" horiz-adv-x="553" d="M327 368q0 -35 -30 -46.5t-73 -11.5q-38 0 -80 14.5t-72 37.5q-28 -26 -45 -66t-17 -88q0 -72 91.5 -135.5t196.5 -63.5q97 0 150.5 21t76.5 56t28 35t8 -4.5t0 -10.5q-44 -70 -103 -93.5t-160 -23.5q-113 0 -210.5 67t-97.5 152q0 52 18.5 96.5t49.5 72.5 q-19 21 -29 43.5t-10 49.5q0 77 64 121.5t151 44.5q77 0 119.5 -9.5t87.5 -44.5q7 -5 1 -13t-13 -3q-42 32 -81.5 41t-113.5 9q-81 0 -138 -39.5t-57 -106.5q0 -21 10.5 -43.5t25.5 -38.5q30 20 67.5 30.5t78.5 10.5q43 0 74.5 -12.5t31.5 -48.5zM224 330q34 0 58.5 9 t24.5 29q0 21 -25 31t-61 10q-37 0 -72.5 -9.5t-61.5 -26.5q25 -17 65.5 -30t71.5 -13zM-9 8h583v-6h-583v6zM-8 265h581v-6h-581v6zM-9 15h580v-15h-580v15zM-8 275h578v-15h-578v15zM288 735q6 7 13 0t1 -14l-72 -78q-6 -7 -13 0t-1 14z" />
<glyph unicode="&#xca;" horiz-adv-x="553" d="M257 727q-24 -27 -37.5 -42t-28.5 -28q-5 -4 -10.5 -1t-5.5 9q0 5 11 14t29.5 30t33.5 40q0 3 8 3t8 -3q8 -11 27 -33.5t43 -42.5q7 -6 1 -14t-13 -2q-11 9 -29.5 28.5t-36.5 41.5zM327 368q0 -35 -30 -46.5t-73 -11.5q-38 0 -80 14.5t-72 37.5q-28 -26 -45 -66t-17 -88 q0 -72 91.5 -135.5t196.5 -63.5q97 0 150.5 21t76.5 56t28 35t8 -4.5t0 -10.5q-44 -70 -103 -93.5t-160 -23.5q-113 0 -210.5 67t-97.5 152q0 52 18.5 96.5t49.5 72.5q-19 21 -29 43.5t-10 49.5q0 77 64 121.5t151 44.5q77 0 119.5 -9.5t87.5 -44.5q7 -5 1 -13t-13 -3 q-42 32 -81.5 41t-113.5 9q-81 0 -138 -39.5t-57 -106.5q0 -21 10.5 -43.5t25.5 -38.5q30 20 67.5 30.5t78.5 10.5q43 0 74.5 -12.5t31.5 -48.5zM224 330q34 0 58.5 9t24.5 29q0 21 -25 31t-61 10q-37 0 -72.5 -9.5t-61.5 -26.5q25 -17 65.5 -30t71.5 -13zM-9 8h583v-6h-583 v6zM-8 265h581v-6h-581v6zM-9 15h580v-15h-580v15zM-8 275h578v-15h-578v15z" />
<glyph unicode="&#xcb;" horiz-adv-x="553" d="M339 681q0 -18 -20 -18q-7 0 -13 5t-6 13q0 5 4.5 12.5t14.5 7.5q8 0 14 -6t6 -14zM232 681q0 -18 -20 -18q-7 0 -13 5t-6 13q0 5 4.5 12.5t14.5 7.5q8 0 14 -6t6 -14zM327 368q0 -35 -30 -46.5t-73 -11.5q-38 0 -80 14.5t-72 37.5q-28 -26 -45 -66t-17 -88 q0 -72 91.5 -135.5t196.5 -63.5q97 0 150.5 21t76.5 56t28 35t8 -4.5t0 -10.5q-44 -70 -103 -93.5t-160 -23.5q-113 0 -210.5 67t-97.5 152q0 52 18.5 96.5t49.5 72.5q-19 21 -29 43.5t-10 49.5q0 77 64 121.5t151 44.5q77 0 119.5 -9.5t87.5 -44.5q7 -5 1 -13t-13 -3 q-42 32 -81.5 41t-113.5 9q-81 0 -138 -39.5t-57 -106.5q0 -21 10.5 -43.5t25.5 -38.5q30 20 67.5 30.5t78.5 10.5q43 0 74.5 -12.5t31.5 -48.5zM224 330q34 0 58.5 9t24.5 29q0 21 -25 31t-61 10q-37 0 -72.5 -9.5t-61.5 -26.5q25 -17 65.5 -30t71.5 -13zM-9 8h583v-6h-583 v6zM-8 265h581v-6h-581v6zM-9 15h580v-15h-580v15zM-8 275h578v-15h-578v15z" />
<glyph unicode="&#xcc;" horiz-adv-x="573" d="M229 726q-6 6 1 13t13 1l72 -78q6 -6 -1 -13t-13 -1zM84 489q0 66 48.5 105.5t132.5 39.5q36 0 96.5 -21t83.5 -21q55 0 64.5 2.5t30.5 21.5q4 4 10.5 0t6.5 -10q-21 -70 -21 -162q0 -46 6 -136.5t6 -97.5q0 -40 -3.5 -62.5t-26 -64t-82 -69t-108.5 -27.5 q-78 0 -137.5 33t-96.5 101q-2 5 1 10t10 5q4 0 22 -34t73 -64.5t128 -30.5q47 0 100 25t72.5 61t23.5 60.5t4 55.5q0 32 -6 112t-6 123q0 37 1.5 67t11.5 71q-12 -6 -30 -8t-54 -2t-96.5 21t-83.5 21q-79 0 -120 -33t-41 -92q0 -71 27.5 -94t66.5 -23q17 1 22 1q9 0 9 -10 t-9 -10h-14q-46 0 -84 26t-38 110zM30 7h582v-6h-582v6zM31 265h579v-6h-579v6zM33 15h577v-15h-577v15zM34 275h575v-15h-575v15z" />
<glyph unicode="&#xcd;" horiz-adv-x="573" d="M312 745q6 7 13 0t1 -14l-72 -78q-6 -7 -13 0t-1 14zM84 489q0 66 48.5 105.5t132.5 39.5q36 0 96.5 -21t83.5 -21q55 0 64.5 2.5t30.5 21.5q4 4 10.5 0t6.5 -10q-21 -70 -21 -162q0 -46 6 -136.5t6 -97.5q0 -40 -3.5 -62.5t-26 -64t-82 -69t-108.5 -27.5 q-78 0 -137.5 33t-96.5 101q-2 5 1 10t10 5q4 0 22 -34t73 -64.5t128 -30.5q47 0 100 25t72.5 61t23.5 60.5t4 55.5q0 32 -6 112t-6 123q0 37 1.5 67t11.5 71q-12 -6 -30 -8t-54 -2t-96.5 21t-83.5 21q-79 0 -120 -33t-41 -92q0 -71 27.5 -94t66.5 -23q17 1 22 1q9 0 9 -10 t-9 -10h-14q-46 0 -84 26t-38 110zM30 7h582v-6h-582v6zM31 265h579v-6h-579v6zM33 15h577v-15h-577v15zM34 275h575v-15h-575v15z" />
<glyph unicode="&#xce;" horiz-adv-x="573" d="M277 727q-24 -27 -37.5 -42t-28.5 -28q-5 -4 -10.5 -1t-5.5 9q0 5 11 14t29.5 30t33.5 40q0 3 8 3t8 -3q8 -11 27 -33.5t43 -42.5q7 -6 1 -14t-13 -2q-11 9 -29.5 28.5t-36.5 41.5zM84 489q0 66 48.5 105.5t132.5 39.5q36 0 96.5 -21t83.5 -21q55 0 64.5 2.5t30.5 21.5 q4 4 10.5 0t6.5 -10q-21 -70 -21 -162q0 -46 6 -136.5t6 -97.5q0 -40 -3.5 -62.5t-26 -64t-82 -69t-108.5 -27.5q-78 0 -137.5 33t-96.5 101q-2 5 1 10t10 5q4 0 22 -34t73 -64.5t128 -30.5q47 0 100 25t72.5 61t23.5 60.5t4 55.5q0 32 -6 112t-6 123q0 37 1.5 67t11.5 71 q-12 -6 -30 -8t-54 -2t-96.5 21t-83.5 21q-79 0 -120 -33t-41 -92q0 -71 27.5 -94t66.5 -23q17 1 22 1q9 0 9 -10t-9 -10h-14q-46 0 -84 26t-38 110zM30 7h582v-6h-582v6zM31 265h579v-6h-579v6zM33 15h577v-15h-577v15zM34 275h575v-15h-575v15z" />
<glyph unicode="&#xcf;" horiz-adv-x="573" d="M344 684q0 -18 -20 -18q-7 0 -13 5t-6 13q0 5 4.5 12.5t14.5 7.5q8 0 14 -6t6 -14zM237 684q0 -18 -20 -18q-7 0 -13 5t-6 13q0 5 4.5 12.5t14.5 7.5q8 0 14 -6t6 -14zM84 489q0 66 48.5 105.5t132.5 39.5q36 0 96.5 -21t83.5 -21q55 0 64.5 2.5t30.5 21.5q4 4 10.5 0 t6.5 -10q-21 -70 -21 -162q0 -46 6 -136.5t6 -97.5q0 -40 -3.5 -62.5t-26 -64t-82 -69t-108.5 -27.5q-78 0 -137.5 33t-96.5 101q-2 5 1 10t10 5q4 0 22 -34t73 -64.5t128 -30.5q47 0 100 25t72.5 61t23.5 60.5t4 55.5q0 32 -6 112t-6 123q0 37 1.5 67t11.5 71 q-12 -6 -30 -8t-54 -2t-96.5 21t-83.5 21q-79 0 -120 -33t-41 -92q0 -71 27.5 -94t66.5 -23q17 1 22 1q9 0 9 -10t-9 -10h-14q-46 0 -84 26t-38 110zM30 7h582v-6h-582v6zM31 265h579v-6h-579v6zM33 15h577v-15h-577v15zM34 275h575v-15h-575v15z" />
<glyph unicode="&#xd1;" horiz-adv-x="775" d="M367 693q2 -5 13.5 -8t26.5 -3q22 0 22 9q3 4 8 4t9 -4.5t1 -9.5q-7 -10 -18 -14.5t-25 -4.5q-15 0 -28.5 5t-22.5 12q-15 17 -43 17q-22 0 -27 -14q-3 -5 -8 -5q-4 0 -8 4t-2 9q14 26 46 26q33 0 56 -23zM323 305v-302q0 -9 -10 -9t-10 9v315v165q0 46 -17 91t-39 41 q-42 0 -91.5 -73.5t-64.5 -131.5q0 -7 -7 -7q-5 0 -9 4t-4 9q21 72 70 145.5t106 73.5q40 -3 58 -49.5t18 -102.5v-90q32 105 85 173.5t130 68.5q45 0 64.5 -35t19.5 -99v-394q0 -42 17.5 -70t50.5 -28q24 0 56 28t48 56t21 28q8 0 10.5 -5t-0.5 -10q-32 -55 -67 -86 t-68 -31q-43 0 -65.5 35t-22.5 83v394q0 61 -14.5 87.5t-49.5 26.5q-78 0 -136 -94.5t-78 -209.5zM30 6h800v-6h-800v6zM34 265h796v-6h-796v6zM32 15h798v-15h-798v15zM33 275h795v-15h-795v15z" />
<glyph unicode="&#xd2;" horiz-adv-x="694" d="M290 731q-6 6 1 13t13 1l72 -78q6 -6 -1 -13t-13 -1zM723 602q6 6 13 -1t1 -13q-33 -33 -63.5 -54.5t-69.5 -35.5q52 -88 52 -196q0 -129 -94 -221t-218 -92q-119 0 -197 95t-78 230q0 131 95.5 225.5t218.5 94.5q65 0 118.5 -31t91.5 -88q36 13 68 35t62 52zM377 559 q0 -29 37.5 -44t87.5 -15q38 0 70 9q-28 41 -63 66t-80 34q-35 0 -43.5 -11.5t-8.5 -38.5zM502 480q-58 0 -101.5 17t-43.5 62q0 21 5 34t15 21q-112 0 -200 -89t-88 -211q0 -128 72.5 -216.5t182.5 -88.5q114 0 203 86t89 207q0 105 -52 189q-39 -11 -82 -11zM32 7h716v-6 h-716v6zM31 265h713v-6h-713v6zM30 15h715v-15h-715v15zM31 275h713v-15h-713v15z" />
<glyph unicode="&#xd3;" horiz-adv-x="694" d="M372 745q6 7 13 0t1 -14l-72 -78q-6 -7 -13 0t-1 14zM723 602q6 6 13 -1t1 -13q-33 -33 -63.5 -54.5t-69.5 -35.5q52 -88 52 -196q0 -129 -94 -221t-218 -92q-119 0 -197 95t-78 230q0 131 95.5 225.5t218.5 94.5q65 0 118.5 -31t91.5 -88q36 13 68 35t62 52zM377 559 q0 -29 37.5 -44t87.5 -15q38 0 70 9q-28 41 -63 66t-80 34q-35 0 -43.5 -11.5t-8.5 -38.5zM502 480q-58 0 -101.5 17t-43.5 62q0 21 5 34t15 21q-112 0 -200 -89t-88 -211q0 -128 72.5 -216.5t182.5 -88.5q114 0 203 86t89 207q0 105 -52 189q-39 -11 -82 -11zM32 7h716v-6 h-716v6zM31 265h713v-6h-713v6zM30 15h715v-15h-715v15zM31 275h713v-15h-713v15z" />
<glyph unicode="&#xd4;" horiz-adv-x="694" d="M317 727q-24 -27 -37.5 -42t-28.5 -28q-5 -4 -10.5 -1t-5.5 9q0 5 11 14t29.5 30t33.5 40q0 3 8 3t8 -3q8 -11 27 -33.5t43 -42.5q7 -6 1 -14t-13 -2q-11 9 -29.5 28.5t-36.5 41.5zM723 602q6 6 13 -1t1 -13q-33 -33 -63.5 -54.5t-69.5 -35.5q52 -88 52 -196 q0 -129 -94 -221t-218 -92q-119 0 -197 95t-78 230q0 131 95.5 225.5t218.5 94.5q65 0 118.5 -31t91.5 -88q36 13 68 35t62 52zM377 559q0 -29 37.5 -44t87.5 -15q38 0 70 9q-28 41 -63 66t-80 34q-35 0 -43.5 -11.5t-8.5 -38.5zM502 480q-58 0 -101.5 17t-43.5 62 q0 21 5 34t15 21q-112 0 -200 -89t-88 -211q0 -128 72.5 -216.5t182.5 -88.5q114 0 203 86t89 207q0 105 -52 189q-39 -11 -82 -11zM32 7h716v-6h-716v6zM31 265h713v-6h-713v6zM30 15h715v-15h-715v15zM31 275h713v-15h-713v15z" />
<glyph unicode="&#xd5;" horiz-adv-x="694" d="M347 685q2 -5 13.5 -8t26.5 -3q22 0 22 9q3 4 8 4t9 -4.5t1 -9.5q-7 -10 -18 -14.5t-25 -4.5q-15 0 -28.5 5t-22.5 12q-15 17 -43 17q-22 0 -27 -14q-3 -5 -8 -5q-4 0 -8 4t-2 9q14 26 46 26q33 0 56 -23zM723 602q6 6 13 -1t1 -13q-33 -33 -63.5 -54.5t-69.5 -35.5 q52 -88 52 -196q0 -129 -94 -221t-218 -92q-119 0 -197 95t-78 230q0 131 95.5 225.5t218.5 94.5q65 0 118.5 -31t91.5 -88q36 13 68 35t62 52zM377 559q0 -29 37.5 -44t87.5 -15q38 0 70 9q-28 41 -63 66t-80 34q-35 0 -43.5 -11.5t-8.5 -38.5zM502 480q-58 0 -101.5 17 t-43.5 62q0 21 5 34t15 21q-112 0 -200 -89t-88 -211q0 -128 72.5 -216.5t182.5 -88.5q114 0 203 86t89 207q0 105 -52 189q-39 -11 -82 -11zM32 7h716v-6h-716v6zM31 265h713v-6h-713v6zM30 15h715v-15h-715v15zM31 275h713v-15h-713v15z" />
<glyph unicode="&#xd6;" horiz-adv-x="694" d="M399 684q0 -18 -20 -18q-7 0 -13 5t-6 13q0 5 4.5 12.5t14.5 7.5q8 0 14 -6t6 -14zM292 684q0 -18 -20 -18q-7 0 -13 5t-6 13q0 5 4.5 12.5t14.5 7.5q8 0 14 -6t6 -14zM723 602q6 6 13 -1t1 -13q-33 -33 -63.5 -54.5t-69.5 -35.5q52 -88 52 -196q0 -129 -94 -221 t-218 -92q-119 0 -197 95t-78 230q0 131 95.5 225.5t218.5 94.5q65 0 118.5 -31t91.5 -88q36 13 68 35t62 52zM377 559q0 -29 37.5 -44t87.5 -15q38 0 70 9q-28 41 -63 66t-80 34q-35 0 -43.5 -11.5t-8.5 -38.5zM502 480q-58 0 -101.5 17t-43.5 62q0 21 5 34t15 21 q-112 0 -200 -89t-88 -211q0 -128 72.5 -216.5t182.5 -88.5q114 0 203 86t89 207q0 105 -52 189q-39 -11 -82 -11zM32 7h716v-6h-716v6zM31 265h713v-6h-713v6zM30 15h715v-15h-715v15zM31 275h713v-15h-713v15z" />
<glyph unicode="&#xd8;" horiz-adv-x="691" d="M70 314q0 131 95.5 225.5t218.5 94.5q45 0 86.5 -16.5t75.5 -46.5l56 80q4 7 12 1t4 -13l-57 -83q45 -45 70.5 -112t25.5 -142q0 -129 -94 -221t-218 -92q-40 0 -74.5 11t-66.5 33l-51 -74q-4 -7 -12 -1t-4 13l51 73q-54 44 -86 115.5t-32 154.5zM534 553 q-31 30 -68.5 45.5t-81.5 15.5q-114 0 -204 -89t-90 -211q0 -78 29 -144.5t80 -108.5zM215 49q27 -18 60.5 -29t69.5 -11q114 0 203 86t89 207q0 70 -23 131.5t-65 105.5zM30 7h648v-6h-648v6zM33 265h644v-6h-644v6zM31 15h646v-15h-646v15zM32 275h643v-15h-643v15z" />
<glyph unicode="&#xd9;" horiz-adv-x="778" d="M345 696q-6 6 1 13t13 1l72 -78q6 -6 -1 -13t-13 -1zM291 93v454q0 32 -8.5 50t-32.5 18q-45 0 -95.5 -62.5t-65.5 -127.5q0 -7 -7 -7q-13 0 -13 11q20 76 71 141t110 65q36 0 48.5 -26t12.5 -62v-454q0 -33 21.5 -59.5t49.5 -26.5q92 0 156.5 71t64.5 271v276q0 9 10 9 t10 -9v-529q0 -48 16 -67t49 -19q31 0 60 27t46 55.5t22 28.5q8 0 10.5 -5t-0.5 -10q-37 -58 -67.5 -87t-70.5 -29t-62.5 26.5t-22.5 79.5v76q-21 -81 -77.5 -133t-143.5 -52q-40 0 -65.5 32t-25.5 74zM30 7h805v-6h-805v6zM32 265h801v-6h-801v6zM30 15h805v-15h-805v15z M31 275h803v-15h-803v15z" />
<glyph unicode="&#xda;" horiz-adv-x="778" d="M427 723q6 7 13 0t1 -14l-72 -78q-6 -7 -13 0t-1 14zM291 93v454q0 32 -8.5 50t-32.5 18q-45 0 -95.5 -62.5t-65.5 -127.5q0 -7 -7 -7q-13 0 -13 11q20 76 71 141t110 65q36 0 48.5 -26t12.5 -62v-454q0 -33 21.5 -59.5t49.5 -26.5q92 0 156.5 71t64.5 271v276q0 9 10 9 t10 -9v-529q0 -48 16 -67t49 -19q31 0 60 27t46 55.5t22 28.5q8 0 10.5 -5t-0.5 -10q-37 -58 -67.5 -87t-70.5 -29t-62.5 26.5t-22.5 79.5v76q-21 -81 -77.5 -133t-143.5 -52q-40 0 -65.5 32t-25.5 74zM30 7h805v-6h-805v6zM32 265h801v-6h-801v6zM30 15h805v-15h-805v15z M31 275h803v-15h-803v15z" />
<glyph unicode="&#xdb;" horiz-adv-x="778" d="M412 727q-24 -27 -37.5 -42t-28.5 -28q-5 -4 -10.5 -1t-5.5 9q0 5 11 14t29.5 30t33.5 40q0 3 8 3t8 -3q8 -11 27 -33.5t43 -42.5q7 -6 1 -14t-13 -2q-11 9 -29.5 28.5t-36.5 41.5zM291 93v454q0 32 -8.5 50t-32.5 18q-45 0 -95.5 -62.5t-65.5 -127.5q0 -7 -7 -7 q-13 0 -13 11q20 76 71 141t110 65q36 0 48.5 -26t12.5 -62v-454q0 -33 21.5 -59.5t49.5 -26.5q92 0 156.5 71t64.5 271v276q0 9 10 9t10 -9v-529q0 -48 16 -67t49 -19q31 0 60 27t46 55.5t22 28.5q8 0 10.5 -5t-0.5 -10q-37 -58 -67.5 -87t-70.5 -29t-62.5 26.5t-22.5 79.5 v76q-21 -81 -77.5 -133t-143.5 -52q-40 0 -65.5 32t-25.5 74zM30 7h805v-6h-805v6zM32 265h801v-6h-801v6zM30 15h805v-15h-805v15zM31 275h803v-15h-803v15z" />
<glyph unicode="&#xdc;" horiz-adv-x="778" d="M479 684q0 -18 -20 -18q-7 0 -13 5t-6 13q0 5 4.5 12.5t14.5 7.5q8 0 14 -6t6 -14zM372 684q0 -18 -20 -18q-7 0 -13 5t-6 13q0 5 4.5 12.5t14.5 7.5q8 0 14 -6t6 -14zM291 93v454q0 32 -8.5 50t-32.5 18q-45 0 -95.5 -62.5t-65.5 -127.5q0 -7 -7 -7q-13 0 -13 11 q20 76 71 141t110 65q36 0 48.5 -26t12.5 -62v-454q0 -33 21.5 -59.5t49.5 -26.5q92 0 156.5 71t64.5 271v276q0 9 10 9t10 -9v-529q0 -48 16 -67t49 -19q31 0 60 27t46 55.5t22 28.5q8 0 10.5 -5t-0.5 -10q-37 -58 -67.5 -87t-70.5 -29t-62.5 26.5t-22.5 79.5v76 q-21 -81 -77.5 -133t-143.5 -52q-40 0 -65.5 32t-25.5 74zM30 7h805v-6h-805v6zM32 265h801v-6h-801v6zM30 15h805v-15h-805v15zM31 275h803v-15h-803v15z" />
<glyph unicode="&#xdf;" horiz-adv-x="577" d="M591 180q0 -82 -65.5 -139t-129.5 -57q-94 0 -127.5 22t-78.5 74q-6 6 1 13t13 1q55 -59 78 -74.5t114 -15.5q53 0 114 53.5t61 122.5q0 80 -33.5 122.5t-109.5 61.5q-3 6 -3 10q0 5 52.5 24t52.5 71q0 64 -46 106t-125 42t-130 -60.5t-51 -183.5v-525q0 -9 -10 -9t-10 9 v525q0 129 57 196.5t144 67.5q85 0 139 -48.5t54 -120.5q0 -38 -23 -63t-57 -34q60 -19 89.5 -70t29.5 -121zM74 7h527v-6h-527v6zM76 265h525v-6h-525v6zM75 15h528v-15h-528v15zM76 275h526v-15h-526v15z" />
<glyph unicode="&#xe0;" horiz-adv-x="436" d="M110 386q-6 6 1 13t13 1l72 -78q6 -6 -1 -13t-13 -1zM266 77q0 -32 12 -50t32 -18q38 0 68 35t43 56t18 21t8.5 -4.5t1.5 -10.5q-23 -39 -56 -78t-83 -39q-28 0 -44.5 21t-19.5 55q-22 -36 -61 -55.5t-73 -19.5q-45 0 -78.5 23.5t-33.5 67.5q0 78 76 128.5t180 50.5 q6 0 7.5 -3.5t2.5 -6.5v-173zM20 81q0 -33 27 -52t65 -19q44 0 89 33.5t45 94.5v102q-94 0 -160 -47t-66 -112zM-10 15h544v-15h-544v15zM-9 275h542v-15h-542v15z" />
<glyph unicode="&#xe1;" horiz-adv-x="436" d="M182 400q6 7 13 0t1 -14l-72 -78q-6 -7 -13 0t-1 14zM266 77q0 -32 12 -50t32 -18q38 0 68 35t43 56t18 21t8.5 -4.5t1.5 -10.5q-23 -39 -56 -78t-83 -39q-28 0 -44.5 21t-19.5 55q-22 -36 -61 -55.5t-73 -19.5q-45 0 -78.5 23.5t-33.5 67.5q0 78 76 128.5t180 50.5 q6 0 7.5 -3.5t2.5 -6.5v-173zM20 81q0 -33 27 -52t65 -19q44 0 89 33.5t45 94.5v102q-94 0 -160 -47t-66 -112zM-10 15h544v-15h-544v15zM-9 275h542v-15h-542v15z" />
<glyph unicode="&#xe2;" horiz-adv-x="436" d="M157 377q-24 -27 -37.5 -42t-28.5 -28q-5 -4 -10.5 -1t-5.5 9q0 5 11 14t29.5 30t33.5 40q0 3 8 3t8 -3q8 -11 27 -33.5t43 -42.5q7 -6 1 -14t-13 -2q-11 9 -29.5 28.5t-36.5 41.5zM266 77q0 -32 12 -50t32 -18q38 0 68 35t43 56t18 21t8.5 -4.5t1.5 -10.5 q-23 -39 -56 -78t-83 -39q-28 0 -44.5 21t-19.5 55q-22 -36 -61 -55.5t-73 -19.5q-45 0 -78.5 23.5t-33.5 67.5q0 78 76 128.5t180 50.5q6 0 7.5 -3.5t2.5 -6.5v-173zM20 81q0 -33 27 -52t65 -19q44 0 89 33.5t45 94.5v102q-94 0 -160 -47t-66 -112zM-10 15h544v-15h-544v15 zM-9 275h542v-15h-542v15z" />
<glyph unicode="&#xe3;" horiz-adv-x="436" d="M152 383q2 -5 13.5 -8t26.5 -3q22 0 22 9q3 4 8 4t9 -4.5t1 -9.5q-7 -10 -18 -14.5t-25 -4.5q-15 0 -28.5 5t-22.5 12q-15 17 -43 17q-22 0 -27 -14q-3 -5 -8 -5q-4 0 -8 4t-2 9q14 26 46 26q33 0 56 -23zM266 77q0 -32 12 -50t32 -18q38 0 68 35t43 56t18 21t8.5 -4.5 t1.5 -10.5q-23 -39 -56 -78t-83 -39q-28 0 -44.5 21t-19.5 55q-22 -36 -61 -55.5t-73 -19.5q-45 0 -78.5 23.5t-33.5 67.5q0 78 76 128.5t180 50.5q6 0 7.5 -3.5t2.5 -6.5v-173zM20 81q0 -33 27 -52t65 -19q44 0 89 33.5t45 94.5v102q-94 0 -160 -47t-66 -112zM-10 15h544 v-15h-544v15zM-9 275h542v-15h-542v15z" />
<glyph unicode="&#xe4;" horiz-adv-x="436" d="M229 339q0 -18 -20 -18q-7 0 -13 5t-6 13q0 5 4.5 12.5t14.5 7.5q8 0 14 -6t6 -14zM122 339q0 -18 -20 -18q-7 0 -13 5t-6 13q0 5 4.5 12.5t14.5 7.5q8 0 14 -6t6 -14zM266 77q0 -32 12 -50t32 -18q38 0 68 35t43 56t18 21t8.5 -4.5t1.5 -10.5q-23 -39 -56 -78t-83 -39 q-28 0 -44.5 21t-19.5 55q-22 -36 -61 -55.5t-73 -19.5q-45 0 -78.5 23.5t-33.5 67.5q0 78 76 128.5t180 50.5q6 0 7.5 -3.5t2.5 -6.5v-173zM20 81q0 -33 27 -52t65 -19q44 0 89 33.5t45 94.5v102q-94 0 -160 -47t-66 -112zM-10 15h544v-15h-544v15zM-9 275h542v-15h-542v15 z" />
<glyph unicode="&#xe5;" horiz-adv-x="430" d="M256 77q0 -32 12 -50t32 -18q38 0 68 35t43 56t18 21t8.5 -4.5t1.5 -10.5q-23 -39 -56 -78t-83 -39q-28 0 -44.5 21t-19.5 55q-22 -36 -61 -55.5t-73 -19.5q-45 0 -78.5 23.5t-33.5 67.5q0 78 76 128.5t180 50.5q6 0 7.5 -3.5t2.5 -6.5v-173zM10 81q0 -33 27 -52t65 -19 q44 0 89 33.5t45 94.5v102q-94 0 -160 -47t-66 -112zM160 329q-15 0 -26.5 10.5t-11.5 26.5t11 27t27 11t27 -11t11 -27t-11.5 -26.5t-26.5 -10.5zM160 349q18 0 18 17q0 7 -5.5 12.5t-12.5 5.5t-12.5 -5.5t-5.5 -12.5t5 -12t13 -5zM-8 265h448v-6h-448v6zM-9 15h450v-15 h-450v15zM-8 275h448v-15h-448v15z" />
<glyph unicode="&#xe6;" horiz-adv-x="503" d="M102 -10q-45 0 -78.5 23.5t-33.5 67.5q0 78 76 128.5t180 50.5q10 0 10 -10v-55q19 37 42.5 51t45.5 14q21 0 37.5 -14t20.5 -38q0 -18 -6 -36.5t-22 -31.5t-48 -23.5t-70 -15.5v-17q0 -13 5.5 -25t23 -30.5t64.5 -18.5q45 0 85 33.5t51.5 55.5t16.5 22t8.5 -4.5 t1.5 -10.5q-24 -44 -66.5 -80t-96.5 -36q-27 0 -49 8.5t-38 26t-23 45.5l-4 4q-24 -35 -62.5 -59.5t-70.5 -24.5zM10 81q0 -33 27 -52t65 -19q30 0 78 39.5t56 71.5v119q-94 0 -160 -47t-66 -112zM359 153q13 11 18 24t5 27q-3 18 -14 27t-24 9q-19 0 -39 -14t-31 -40 t-14.5 -37t-3.5 -20v-8q33 3 64 13.5t39 18.5zM-8 265h521v-6h-521v6zM-9 15h541v-15h-541v15zM-8 275h539v-15h-539v15z" />
<glyph unicode="&#xe7;" horiz-adv-x="317" d="M95 28q2 6 8 6q3 0 8 -3.5t2 -10.5q-14 -35 -23.5 -53t-18.5 -31t-14 -13t-8 4.5t0 10.5q27 43 46 90zM133 240q-49 0 -85 -33t-36 -83q0 -56 43.5 -85.5t98.5 -29.5q64 0 92 26t65 82q4 7 12 1t4 -13q-38 -56 -70 -86t-103 -30q-61 0 -111.5 34t-50.5 101 q0 59 41.5 97.5t99.5 38.5q34 0 47 -2q3 -2 6 -3q9 0 9 -10t-9 -10q-5 0 -11.5 2.5t-41.5 2.5zM-10 7h451v-6h-451v6zM-6 265h448v-6h-448v6zM-7 15h449v-15h-449v15zM-6 275h447v-15h-447v15z" />
<glyph unicode="&#xe8;" horiz-adv-x="257" d="M30 386q-6 6 1 13t13 1l72 -78q6 -6 -1 -13t-13 -1zM30 38q26 -28 73 -28q45 0 85 33.5t51.5 55.5t16.5 22t8.5 -4.5t1.5 -10.5q-24 -44 -66.5 -80t-96.5 -36q-27 0 -49 8.5t-43.5 32.5t-21.5 75q0 39 16 78.5t42 57.5t51 18q21 0 37.5 -14t20.5 -38q0 -18 -6 -36.5 t-22 -31.5t-49.5 -23.5t-69.5 -14.5q0 -15 6 -35t15 -29zM136 204q-3 18 -14 27t-24 9q-19 0 -39 -14t-30.5 -38t-14.5 -41t-5 -26q31 0 63 11.5t43 21.5t16 23t5 27zM-10 6h451v-6h-451v6zM-8 265h448v-6h-448v6zM-9 15h451v-15h-451v15zM-8 275h449v-15h-449v15z" />
<glyph unicode="&#xe9;" horiz-adv-x="257" d="M112 400q6 7 13 0t1 -14l-72 -78q-6 -7 -13 0t-1 14zM30 38q26 -28 73 -28q45 0 85 33.5t51.5 55.5t16.5 22t8.5 -4.5t1.5 -10.5q-24 -44 -66.5 -80t-96.5 -36q-27 0 -49 8.5t-43.5 32.5t-21.5 75q0 39 16 78.5t42 57.5t51 18q21 0 37.5 -14t20.5 -38q0 -18 -6 -36.5 t-22 -31.5t-49.5 -23.5t-69.5 -14.5q0 -15 6 -35t15 -29zM136 204q-3 18 -14 27t-24 9q-19 0 -39 -14t-30.5 -38t-14.5 -41t-5 -26q31 0 63 11.5t43 21.5t16 23t5 27zM-10 6h451v-6h-451v6zM-8 265h448v-6h-448v6zM-9 15h451v-15h-451v15zM-8 275h449v-15h-449v15z" />
<glyph unicode="&#xea;" horiz-adv-x="257" d="M97 377q-24 -27 -37.5 -42t-28.5 -28q-5 -4 -10.5 -1t-5.5 9q0 5 11 14t29.5 30t33.5 40q0 3 8 3t8 -3q8 -11 27 -33.5t43 -42.5q7 -6 1 -14t-13 -2q-11 9 -29.5 28.5t-36.5 41.5zM30 38q26 -28 73 -28q45 0 85 33.5t51.5 55.5t16.5 22t8.5 -4.5t1.5 -10.5 q-24 -44 -66.5 -80t-96.5 -36q-27 0 -49 8.5t-43.5 32.5t-21.5 75q0 39 16 78.5t42 57.5t51 18q21 0 37.5 -14t20.5 -38q0 -18 -6 -36.5t-22 -31.5t-49.5 -23.5t-69.5 -14.5q0 -15 6 -35t15 -29zM136 204q-3 18 -14 27t-24 9q-19 0 -39 -14t-30.5 -38t-14.5 -41t-5 -26 q31 0 63 11.5t43 21.5t16 23t5 27zM-10 6h451v-6h-451v6zM-8 265h448v-6h-448v6zM-9 15h451v-15h-451v15zM-8 275h449v-15h-449v15z" />
<glyph unicode="&#xeb;" horiz-adv-x="257" d="M190 339q0 -18 -20 -18q-7 0 -13 5t-6 13q0 5 4.5 12.5t14.5 7.5q8 0 14 -6t6 -14zM83 339q0 -18 -20 -18q-7 0 -13 5t-6 13q0 5 4.5 12.5t14.5 7.5q8 0 14 -6t6 -14zM30 38q26 -28 73 -28q45 0 85 33.5t51.5 55.5t16.5 22t8.5 -4.5t1.5 -10.5q-24 -44 -66.5 -80 t-96.5 -36q-27 0 -49 8.5t-43.5 32.5t-21.5 75q0 39 16 78.5t42 57.5t51 18q21 0 37.5 -14t20.5 -38q0 -18 -6 -36.5t-22 -31.5t-49.5 -23.5t-69.5 -14.5q0 -15 6 -35t15 -29zM136 204q-3 18 -14 27t-24 9q-19 0 -39 -14t-30.5 -38t-14.5 -41t-5 -26q31 0 63 11.5t43 21.5 t16 23t5 27zM-10 6h451v-6h-451v6zM-8 265h448v-6h-448v6zM-9 15h451v-15h-451v15zM-8 275h449v-15h-449v15z" />
<glyph unicode="&#xec;" horiz-adv-x="184" d="M-70 386q-6 6 1 13t13 1l72 -78q6 -6 -1 -13t-13 -1zM10 78q0 -30 11.5 -49t36.5 -19q26 0 57.5 27.5t47 55.5t20.5 28q8 0 10.5 -5t-0.5 -10q-64 -116 -135 -116q-35 0 -51.5 27t-16.5 61v171q0 9 10 9t10 -9v-171zM-10 7h451v-6h-451v6zM-8 265h448v-6h-448v6zM-9 15 h452v-15h-452v15zM-8 275h450v-15h-450v15z" />
<glyph unicode="&#xed;" horiz-adv-x="184" d="M42 400q6 7 13 0t1 -14l-72 -78q-6 -7 -13 0t-1 14zM10 78q0 -30 11.5 -49t36.5 -19q26 0 57.5 27.5t47 55.5t20.5 28q8 0 10.5 -5t-0.5 -10q-64 -116 -135 -116q-35 0 -51.5 27t-16.5 61v171q0 9 10 9t10 -9v-171zM-10 7h451v-6h-451v6zM-8 265h448v-6h-448v6zM-9 15 h452v-15h-452v15zM-8 275h450v-15h-450v15z" />
<glyph unicode="&#xee;" horiz-adv-x="184" d="M-3 377q-24 -27 -37.5 -42t-28.5 -28q-5 -4 -10.5 -1t-5.5 9q0 5 11 14t29.5 30t33.5 40q0 3 8 3t8 -3q8 -11 27 -33.5t43 -42.5q7 -6 1 -14t-13 -2q-11 9 -29.5 28.5t-36.5 41.5zM10 78q0 -30 11.5 -49t36.5 -19q26 0 57.5 27.5t47 55.5t20.5 28q8 0 10.5 -5t-0.5 -10 q-64 -116 -135 -116q-35 0 -51.5 27t-16.5 61v171q0 9 10 9t10 -9v-171zM-10 7h451v-6h-451v6zM-8 265h448v-6h-448v6zM-9 15h452v-15h-452v15zM-8 275h450v-15h-450v15z" />
<glyph unicode="&#xef;" horiz-adv-x="184" d="M72 339q0 -18 -20 -18q-7 0 -13 5t-6 13q0 5 4.5 12.5t14.5 7.5q8 0 14 -6t6 -14zM-35 339q0 -18 -20 -18q-7 0 -13 5t-6 13q0 5 4.5 12.5t14.5 7.5q8 0 14 -6t6 -14zM10 78q0 -30 11.5 -49t36.5 -19q26 0 57.5 27.5t47 55.5t20.5 28q8 0 10.5 -5t-0.5 -10 q-64 -116 -135 -116q-35 0 -51.5 27t-16.5 61v171q0 9 10 9t10 -9v-171zM-10 7h451v-6h-451v6zM-8 265h448v-6h-448v6zM-9 15h452v-15h-452v15zM-8 275h450v-15h-450v15z" />
<glyph unicode="&#xf1;" horiz-adv-x="486" d="M182 383q2 -5 13.5 -8t26.5 -3q22 0 22 9q3 4 8 4t9 -4.5t1 -9.5q-7 -10 -18 -14.5t-25 -4.5q-15 0 -28.5 5t-22.5 12q-15 17 -43 17q-22 0 -27 -14q-3 -5 -8 -5q-4 0 -8 4t-2 9q14 26 46 26q33 0 56 -23zM134 0q0 -9 -10 -9t-10 9v178q0 26 -3.5 41.5t-12.5 18.5 q-11 0 -43.5 -55t-40.5 -68.5t-13 -13.5q-8 0 -10.5 5t0.5 10q27 45 57 92.5t52 51.5q20 -5 27 -28t7 -54v-17q24 42 54.5 70.5t67.5 28.5q28 0 42 -26t14 -56v-94q0 -74 44 -74q26 0 54.5 21t49 55.5t25.5 34.5q8 0 10.5 -5t-0.5 -10q-40 -66 -74 -91t-65 -25t-47.5 26.5 t-16.5 67.5v94q0 22 -11 42t-25 20q-34 0 -68 -38.5t-55 -82.5zM-10 8h508v-6h-508v6zM-8 265h505v-6h-505v6zM-9 15h506v-15h-506v15zM-8 275h504v-15h-504v15z" />
<glyph unicode="&#xf2;" horiz-adv-x="392" d="M80 386q-6 6 1 13t13 1l72 -78q6 -6 -1 -13t-13 -1zM267 114q0 -16 -6 -33q22 -5 39 -5q27 0 49.5 9.5t30.5 22.5t13 13t9 -3.5t-1 -11.5q-16 -25 -43 -37.5t-57 -12.5q-10 0 -22.5 2t-25.5 5q-18 -32 -52.5 -52.5t-71.5 -20.5q-56 0 -97 31.5t-41 90.5q0 54 32.5 93.5 t60.5 44t37.5 6t15.5 1.5q21 0 44 -7t47 -23q21 -19 30 -48t9 -65zM161 193q-5 -22 17 -54.5t55 -47.5l9 -3q5 12 5 26q0 38 -5.5 57.5t-25.5 40.5q-17 12 -28 12q-17 0 -27 -31zM11 112q0 -50 33.5 -76t84.5 -26q30 0 58.5 16.5t45.5 43.5l-8 3q-35 17 -60 50t-25 64 q0 7 1 10q0 11 4.5 19t14.5 17q-9 4 -25 4h-12q-8 -2 -32 -6t-52 -38t-28 -81zM-10 7h451v-6h-451v6zM-7 265h448v-6h-448v6zM-8 15h448v-15h-448v15zM-7 275h446v-15h-446v15z" />
<glyph unicode="&#xf3;" horiz-adv-x="392" d="M162 400q6 7 13 0t1 -14l-72 -78q-6 -7 -13 0t-1 14zM267 114q0 -16 -6 -33q22 -5 39 -5q27 0 49.5 9.5t30.5 22.5t13 13t9 -3.5t-1 -11.5q-16 -25 -43 -37.5t-57 -12.5q-10 0 -22.5 2t-25.5 5q-18 -32 -52.5 -52.5t-71.5 -20.5q-56 0 -97 31.5t-41 90.5q0 54 32.5 93.5 t60.5 44t37.5 6t15.5 1.5q21 0 44 -7t47 -23q21 -19 30 -48t9 -65zM161 193q-5 -22 17 -54.5t55 -47.5l9 -3q5 12 5 26q0 38 -5.5 57.5t-25.5 40.5q-17 12 -28 12q-17 0 -27 -31zM11 112q0 -50 33.5 -76t84.5 -26q30 0 58.5 16.5t45.5 43.5l-8 3q-35 17 -60 50t-25 64 q0 7 1 10q0 11 4.5 19t14.5 17q-9 4 -25 4h-12q-8 -2 -32 -6t-52 -38t-28 -81zM-10 7h451v-6h-451v6zM-7 265h448v-6h-448v6zM-8 15h448v-15h-448v15zM-7 275h446v-15h-446v15z" />
<glyph unicode="&#xf4;" horiz-adv-x="392" d="M135 377q-24 -27 -37.5 -42t-28.5 -28q-5 -4 -10.5 -1t-5.5 9q0 5 11 14t29.5 30t33.5 40q0 3 8 3t8 -3q8 -11 27 -33.5t43 -42.5q7 -6 1 -14t-13 -2q-11 9 -29.5 28.5t-36.5 41.5zM267 114q0 -16 -6 -33q22 -5 39 -5q27 0 49.5 9.5t30.5 22.5t13 13t9 -3.5t-1 -11.5 q-16 -25 -43 -37.5t-57 -12.5q-10 0 -22.5 2t-25.5 5q-18 -32 -52.5 -52.5t-71.5 -20.5q-56 0 -97 31.5t-41 90.5q0 54 32.5 93.5t60.5 44t37.5 6t15.5 1.5q21 0 44 -7t47 -23q21 -19 30 -48t9 -65zM161 193q-5 -22 17 -54.5t55 -47.5l9 -3q5 12 5 26q0 38 -5.5 57.5 t-25.5 40.5q-17 12 -28 12q-17 0 -27 -31zM11 112q0 -50 33.5 -76t84.5 -26q30 0 58.5 16.5t45.5 43.5l-8 3q-35 17 -60 50t-25 64q0 7 1 10q0 11 4.5 19t14.5 17q-9 4 -25 4h-12q-8 -2 -32 -6t-52 -38t-28 -81zM-10 7h451v-6h-451v6zM-7 265h448v-6h-448v6zM-8 15h448v-15 h-448v15zM-7 275h446v-15h-446v15z" />
<glyph unicode="&#xf5;" horiz-adv-x="392" d="M133 383q2 -5 13.5 -8t26.5 -3q22 0 22 9q3 4 8 4t9 -4.5t1 -9.5q-7 -10 -18 -14.5t-25 -4.5q-15 0 -28.5 5t-22.5 12q-15 17 -43 17q-22 0 -27 -14q-3 -5 -8 -5q-4 0 -8 4t-2 9q14 26 46 26q33 0 56 -23zM267 114q0 -16 -6 -33q22 -5 39 -5q27 0 49.5 9.5t30.5 22.5 t13 13t9 -3.5t-1 -11.5q-16 -25 -43 -37.5t-57 -12.5q-10 0 -22.5 2t-25.5 5q-18 -32 -52.5 -52.5t-71.5 -20.5q-56 0 -97 31.5t-41 90.5q0 54 32.5 93.5t60.5 44t37.5 6t15.5 1.5q21 0 44 -7t47 -23q21 -19 30 -48t9 -65zM161 193q-5 -22 17 -54.5t55 -47.5l9 -3q5 12 5 26 q0 38 -5.5 57.5t-25.5 40.5q-17 12 -28 12q-17 0 -27 -31zM11 112q0 -50 33.5 -76t84.5 -26q30 0 58.5 16.5t45.5 43.5l-8 3q-35 17 -60 50t-25 64q0 7 1 10q0 11 4.5 19t14.5 17q-9 4 -25 4h-12q-8 -2 -32 -6t-52 -38t-28 -81zM-10 7h451v-6h-451v6zM-7 265h448v-6h-448v6z M-8 15h448v-15h-448v15zM-7 275h446v-15h-446v15z" />
<glyph unicode="&#xf6;" horiz-adv-x="392" d="M209 339q0 -18 -20 -18q-7 0 -13 5t-6 13q0 5 4.5 12.5t14.5 7.5q8 0 14 -6t6 -14zM102 339q0 -18 -20 -18q-7 0 -13 5t-6 13q0 5 4.5 12.5t14.5 7.5q8 0 14 -6t6 -14zM267 114q0 -16 -6 -33q22 -5 39 -5q27 0 49.5 9.5t30.5 22.5t13 13t9 -3.5t-1 -11.5 q-16 -25 -43 -37.5t-57 -12.5q-10 0 -22.5 2t-25.5 5q-18 -32 -52.5 -52.5t-71.5 -20.5q-56 0 -97 31.5t-41 90.5q0 54 32.5 93.5t60.5 44t37.5 6t15.5 1.5q21 0 44 -7t47 -23q21 -19 30 -48t9 -65zM161 193q-5 -22 17 -54.5t55 -47.5l9 -3q5 12 5 26q0 38 -5.5 57.5 t-25.5 40.5q-17 12 -28 12q-17 0 -27 -31zM11 112q0 -50 33.5 -76t84.5 -26q30 0 58.5 16.5t45.5 43.5l-8 3q-35 17 -60 50t-25 64q0 7 1 10q0 11 4.5 19t14.5 17q-9 4 -25 4h-12q-8 -2 -32 -6t-52 -38t-28 -81zM-10 7h451v-6h-451v6zM-7 265h448v-6h-448v6zM-8 15h448v-15 h-448v15zM-7 275h446v-15h-446v15z" />
<glyph unicode="&#xf7;" horiz-adv-x="788" />
<glyph unicode="&#xf8;" horiz-adv-x="340" d="M69 112q0 55 31.5 93.5t84.5 48.5h12.5t16.5 1q15 0 32 -1.5t36 -10.5l29 43q4 7 12 1t4 -13l-28 -41q29 -24 37.5 -50t8.5 -69q0 -50 -43 -87t-95 -37q-34 0 -64 12l-26 -38q-4 -7 -12 -1t-4 13l24 35q-25 15 -40.5 40.5t-15.5 60.5zM154 19q24 -9 53 -9q43 0 80.5 32.5 t37.5 71.5q0 42 -6 61.5t-32 40.5zM271 227q-8 3 -25 5t-44 2h-15q-45 -8 -71.5 -41.5t-26.5 -80.5q0 -29 12.5 -50.5t34.5 -34.5zM30 15h349v-15h-349v15zM31 275h347v-15h-347v15z" />
<glyph unicode="&#xf9;" horiz-adv-x="413" d="M60 386q-6 6 1 13t13 1l72 -78q6 -6 -1 -13t-13 -1zM219 250q0 9 10 9t10 -9v-178q0 -29 12.5 -45.5t31.5 -16.5q27 0 57 23.5t48.5 55.5t23.5 32q8 0 10.5 -5t-0.5 -10q-35 -60 -70.5 -88t-68.5 -28q-29 0 -46.5 23.5t-17.5 58.5v23q-32 -46 -74 -75.5t-79 -29.5 q-31 0 -53.5 26.5t-22.5 58.5v175q0 9 10 9t10 -9v-175q0 -24 17.5 -44.5t38.5 -20.5q34 0 81 37.5t72 86.5v116zM-9 6h466v-6h-466v6zM-8 265h463v-6h-463v6zM-9 15h467v-15h-467v15zM-8 275h465v-15h-465v15z" />
<glyph unicode="&#xfa;" horiz-adv-x="413" d="M152 400q6 7 13 0t1 -14l-72 -78q-6 -7 -13 0t-1 14zM219 250q0 9 10 9t10 -9v-178q0 -29 12.5 -45.5t31.5 -16.5q27 0 57 23.5t48.5 55.5t23.5 32q8 0 10.5 -5t-0.5 -10q-35 -60 -70.5 -88t-68.5 -28q-29 0 -46.5 23.5t-17.5 58.5v23q-32 -46 -74 -75.5t-79 -29.5 q-31 0 -53.5 26.5t-22.5 58.5v175q0 9 10 9t10 -9v-175q0 -24 17.5 -44.5t38.5 -20.5q34 0 81 37.5t72 86.5v116zM-9 6h466v-6h-466v6zM-8 265h463v-6h-463v6zM-9 15h467v-15h-467v15zM-8 275h465v-15h-465v15z" />
<glyph unicode="&#xfb;" horiz-adv-x="413" d="M117 377q-24 -27 -37.5 -42t-28.5 -28q-5 -4 -10.5 -1t-5.5 9q0 5 11 14t29.5 30t33.5 40q0 3 8 3t8 -3q8 -11 27 -33.5t43 -42.5q7 -6 1 -14t-13 -2q-11 9 -29.5 28.5t-36.5 41.5zM219 250q0 9 10 9t10 -9v-178q0 -29 12.5 -45.5t31.5 -16.5q27 0 57 23.5t48.5 55.5 t23.5 32q8 0 10.5 -5t-0.5 -10q-35 -60 -70.5 -88t-68.5 -28q-29 0 -46.5 23.5t-17.5 58.5v23q-32 -46 -74 -75.5t-79 -29.5q-31 0 -53.5 26.5t-22.5 58.5v175q0 9 10 9t10 -9v-175q0 -24 17.5 -44.5t38.5 -20.5q34 0 81 37.5t72 86.5v116zM-9 6h466v-6h-466v6zM-8 265h463 v-6h-463v6zM-9 15h467v-15h-467v15zM-8 275h465v-15h-465v15z" />
<glyph unicode="&#xfc;" horiz-adv-x="413" d="M199 339q0 -18 -20 -18q-7 0 -13 5t-6 13q0 5 4.5 12.5t14.5 7.5q8 0 14 -6t6 -14zM92 339q0 -18 -20 -18q-7 0 -13 5t-6 13q0 5 4.5 12.5t14.5 7.5q8 0 14 -6t6 -14zM219 250q0 9 10 9t10 -9v-178q0 -29 12.5 -45.5t31.5 -16.5q27 0 57 23.5t48.5 55.5t23.5 32 q8 0 10.5 -5t-0.5 -10q-35 -60 -70.5 -88t-68.5 -28q-29 0 -46.5 23.5t-17.5 58.5v23q-32 -46 -74 -75.5t-79 -29.5q-31 0 -53.5 26.5t-22.5 58.5v175q0 9 10 9t10 -9v-175q0 -24 17.5 -44.5t38.5 -20.5q34 0 81 37.5t72 86.5v116zM-9 6h466v-6h-466v6zM-8 265h463v-6h-463 v6zM-9 15h467v-15h-467v15zM-8 275h465v-15h-465v15z" />
<glyph unicode="&#xff;" horiz-adv-x="421" d="M206 339q0 -18 -20 -18q-7 0 -13 5t-6 13q0 5 4.5 12.5t14.5 7.5q8 0 14 -6t6 -14zM99 339q0 -18 -20 -18q-7 0 -13 5t-6 13q0 5 4.5 12.5t14.5 7.5q8 0 14 -6t6 -14zM82 -11q-37 0 -64.5 28.5t-27.5 58.5v173q0 9 10 9t10 -9v-173q0 -18 23 -42.5t49 -24.5 q60 0 100.5 36t53.5 85v119q0 9 10 9t10 -9v-115v-192q65 63 99.5 99.5t47 58t17.5 21.5q8 0 10.5 -5t-0.5 -10q-22 -35 -51 -68t-123 -124v-154q0 -46 -17 -78t-58 -32q-69 0 -69 98q0 36 32.5 78.5t91.5 96.5v155q-23 -39 -62 -64t-92 -25zM132 -252q0 -47 10.5 -62.5 t38.5 -15.5q27 0 41 25.5t14 64.5v135q-46 -43 -75 -82t-29 -65zM-9 7h443v-6h-443v6zM-8 265h441v-6h-441v6zM-9 15h447v-15h-447v15zM-8 275h445v-15h-445v15z" />
<glyph unicode="&#x131;" horiz-adv-x="184" d="M10 78q0 -30 11.5 -49t36.5 -19q26 0 57.5 27.5t47 55.5t20.5 28q8 0 10.5 -5t-0.5 -10q-64 -116 -135 -116q-35 0 -51.5 27t-16.5 61v171q0 9 10 9t10 -9v-171zM-10 7h451v-6h-451v6zM-8 265h448v-6h-448v6zM-9 15h452v-15h-452v15zM-8 275h450v-15h-450v15z" />
<glyph unicode="&#x152;" horiz-adv-x="1103" d="M808 429q43 0 74.5 -12.5t31.5 -48.5q0 -35 -30 -46.5t-73 -11.5q-41 0 -80.5 12.5t-71.5 37.5l-10 -9q2 -11 3.5 -26.5t1.5 -22.5q0 -79 -41 -152q33 -58 110.5 -99.5t161.5 -41.5q97 0 150.5 21t76.5 56t28 35t8 -4.5t0 -10.5q-44 -70 -103 -93.5t-160 -23.5 q-86 0 -166 40t-118 101q-45 -64 -114.5 -102.5t-144.5 -38.5q-119 0 -197 95t-78 230q0 131 95.5 225.5t218.5 94.5q73 0 131 -38.5t95 -106.5q9 68 71 107.5t143 39.5q77 0 119.5 -9.5t87.5 -44.5q7 -5 1 -13t-13 -3q-42 32 -81.5 41t-113.5 9q-81 0 -138 -39.5 t-57 -106.5q0 -19 7.5 -43.5t28.5 -40.5q31 22 67 32.5t79 10.5zM577 208q0 46 13.5 84t38.5 66q-2 14 -4.5 26t-4.5 20l-10 32q-30 79 -91 128.5t-138 49.5q-114 0 -204 -89t-90 -211q0 -128 72.5 -216.5t182.5 -88.5q72 0 139.5 39t108.5 103q-3 6 -8 23.5t-5 33.5z M597 208q0 -16 6 -34q15 32 23 62t8 66l-1 29q-36 -49 -36 -123zM894 368q0 21 -25 31t-61 10t-71 -9.5t-59 -26.5q22 -20 59 -31.5t74 -11.5q34 0 58.5 9t24.5 29zM30 265h1116v-6h-1116v6zM30 15h1116v-15h-1116v15zM32 275h1112v-15h-1112v15z" />
<glyph unicode="&#x153;" horiz-adv-x="515" d="M357 260q15 -1 20 -3t21 -14.5t16 -42.5q0 -11 -4.5 -27.5t-23 -32.5t-50.5 -27.5t-68 -11.5q0 -21 4.5 -36.5t23 -35t65.5 -19.5q45 0 85 33.5t51.5 55.5t16.5 22t8.5 -4.5t1.5 -10.5q-24 -44 -66.5 -80t-96.5 -36q-27 0 -49 8.5t-37 25t-23 39.5q-18 -32 -52.5 -52.5 t-71.5 -20.5q-56 0 -97 31.5t-41 90.5q0 55 31.5 93.5t84.5 48.5h13.5t17.5 1q22 0 41 -3.5t36 -13.5q11 -10 24.5 -24t21.5 -37q15 44 43.5 63.5t53.5 19.5zM371 153q13 11 18 24t5 27q-3 18 -14 27t-24 9q-19 0 -39 -14t-31 -39.5t-14 -39.5t-4 -27q32 0 62.5 11.5 t40.5 21.5zM214 212q-18 10 -28 10q-7 0 -13 -6t-8 -10t-2 -11q0 -13 13.5 -32t31.5 -28t38 -13q0 34 -5.5 52.5t-26.5 37.5zM128 10q40 0 75 27t42 65q-24 4 -46 15t-34.5 27.5t-17 28.5t-4.5 21q0 12 5 21t10 11q3 3 5.5 4t4.5 2q-20 7 -40 7q-52 0 -85 -41.5t-33 -85.5 q0 -50 33.5 -76t84.5 -26zM-8 265h533v-6h-533v6zM-9 15h541v-15h-541v15zM-8 275h539v-15h-539v15z" />
<glyph unicode="&#x178;" horiz-adv-x="725" d="M419 684q0 -18 -20 -18q-7 0 -13 5t-6 13q0 5 4.5 12.5t14.5 7.5q8 0 14 -6t6 -14zM312 684q0 -18 -20 -18q-7 0 -13 5t-6 13q0 5 4.5 12.5t14.5 7.5q8 0 14 -6t6 -14zM755 116q3 5 8 5t8.5 -4.5t1.5 -10.5q-26 -49 -78.5 -91t-126.5 -86v-136q0 -70 -23 -124t-86 -54 q-49 0 -77.5 34.5t-28.5 88.5q0 57 51.5 103.5t143.5 98.5v363q-31 -76 -78 -133t-113 -57q-57 0 -87.5 35.5t-30.5 100.5v273q0 47 -15.5 70t-42.5 23q-42 0 -61 -35t-31 -72q0 -7 -7 -7q-13 0 -13 11q11 41 33 82t77 41q38 0 59 -30t21 -83v-273q0 -43 18 -79.5t80 -36.5 q56 0 108 66t83 167v255q0 9 10 9t10 -9v-254v-415q72 42 117.5 80t69.5 84zM373 -262q0 -48 22.5 -75.5t63.5 -27.5q48 0 68.5 48t20.5 110v123q-107 -63 -141 -102t-34 -76zM32 9h759v-6h-759v6zM31 265h755v-6h-755v6zM30 15h762v-15h-762v15zM31 275h760v-15h-760v15z " />
<glyph unicode="&#x192;" horiz-adv-x="392" />
<glyph unicode="&#x3a3;" horiz-adv-x="710" />
<glyph unicode="&#x3a9;" horiz-adv-x="607" />
<glyph unicode="&#x3c0;" horiz-adv-x="392" />
<glyph unicode="&#x2013;" horiz-adv-x="66" d="M7 19q-6 -7 -13 0t-1 14q22 25 37 44.5t23 31.5t13 12t8 -4.5t0 -10.5q-9 -15 -27 -39t-40 -48zM-12 7h451v-6h-451v6zM-8 265h448v-6h-448v6zM-9 15h450v-15h-450v15zM-8 275h448v-15h-448v15z" />
<glyph unicode="&#x2014;" horiz-adv-x="663" d="M432 138h221q9 0 9 -10t-9 -10h-221h-287q-9 0 -9 10t9 10h287zM62 7h603v-6h-603v6zM66 265h600v-6h-600v6zM65 15h600v-15h-600v15zM66 275h598v-15h-598v15z" />
<glyph unicode="&#x2018;" horiz-adv-x="206" d="M209 474q2 -3 0 -9.5t-9 -6.5q-4 0 -17 18t-27.5 44t-29.5 61q-6 13 11 13q6 0 7 -5q15 -35 28.5 -59t36.5 -56zM55 6h451v-6h-451v6zM57 265h448v-6h-448v6zM56 15h448v-15h-448v15zM57 275h447v-15h-447v15z" />
<glyph unicode="&#x2019;" horiz-adv-x="213" d="M159 462q-5 -7 -13 -1t-3 13q23 32 36.5 56t28.5 59q1 5 7 5q5 0 9 -4t2 -9q-14 -33 -28.5 -59t-38.5 -60zM64 7h451v-6h-451v6zM66 265h448v-6h-448v6zM65 15h452v-15h-452v15zM66 275h450v-15h-450v15z" />
<glyph unicode="&#x201a;" horiz-adv-x="150" d="M95 28q2 6 8 6q3 0 8 -3.5t2 -10.5q-14 -35 -23.5 -53t-18.5 -31t-14 -13t-8 4.5t0 10.5q27 43 46 90z" />
<glyph unicode="&#x201c;" horiz-adv-x="276" d="M208 474q2 -3 0 -9.5t-9 -6.5q-4 0 -17 18t-27.5 44t-29.5 61q-6 13 11 13q6 0 7 -5q15 -35 28.5 -59t36.5 -56zM278 474q2 -3 0 -9.5t-9 -6.5q-4 0 -17 18t-27.5 44t-29.5 61q-6 13 11 13q6 0 7 -5q15 -35 28.5 -59t36.5 -56zM55 9h451v-6h-451v6zM56 265h448v-6h-448v6 zM55 15h452v-15h-452v15zM56 275h450v-15h-450v15z" />
<glyph unicode="&#x201d;" horiz-adv-x="283" d="M228 462q-5 -7 -13 -1t-3 13q23 32 36.5 56t28.5 59q1 5 7 5q5 0 9 -4t2 -9q-14 -33 -28.5 -59t-38.5 -60zM158 462q-5 -7 -13 -1t-3 13q23 32 36.5 56t28.5 59q1 5 7 5q5 0 9 -4t2 -9q-14 -33 -28.5 -59t-38.5 -60zM64 9h451v-6h-451v6zM65 265h448v-6h-448v6zM64 15 h453v-15h-453v15zM65 275h452v-15h-452v15z" />
<glyph unicode="&#x201e;" horiz-adv-x="162" d="M202 28q2 6 8 6q3 0 8 -3.5t2 -10.5q-14 -35 -23.5 -53t-18.5 -31t-14 -13t-8 4.5t0 10.5q27 43 46 90zM96 6h451v-6h-451v6zM99 265h448v-6h-448v6zM98 15h449v-15h-449v15zM99 275h447v-15h-447v15zM152 28q2 6 8 6q3 0 8 -3.5t2 -10.5q-14 -35 -23.5 -53t-18.5 -31 t-14 -13t-8 4.5t0 10.5q27 43 46 90zM46 6h451v-6h-451v6zM49 265h448v-6h-448v6zM48 15h449v-15h-449v15zM49 275h447v-15h-447v15z" />
<glyph unicode="&#x2020;" horiz-adv-x="392" />
<glyph unicode="&#x2021;" horiz-adv-x="795" />
<glyph unicode="&#x2022;" horiz-adv-x="580" />
<glyph unicode="&#x2026;" horiz-adv-x="332" d="M161 17q0 -18 -20 -18q-7 0 -13 5t-6 13q0 5 4.5 12.5t14.5 7.5q8 0 14 -6t6 -14zM341 17q0 -18 -20 -18q-7 0 -13 5t-6 13q0 5 4.5 12.5t14.5 7.5q8 0 14 -6t6 -14zM251 17q0 -18 -20 -18q-7 0 -13 5t-6 13q0 5 4.5 12.5t14.5 7.5q8 0 14 -6t6 -14zM56 6h451v-6h-451v6z M58 265h448v-6h-448v6zM57 15h450v-15h-450v15zM58 275h448v-15h-448v15z" />
<glyph unicode="&#x2030;" horiz-adv-x="645" />
<glyph unicode="&#x2039;" horiz-adv-x="138" d="M91 111l48 -49q6 -6 -1 -13t-13 -1l-55 56q-6 8 0 14l58 58q7 7 14 0t0 -14zM27 6h451v-6h-451v6zM29 265h448v-6h-448v6zM28 15h450v-15h-450v15zM29 275h448v-15h-448v15z" />
<glyph unicode="&#x203a;" horiz-adv-x="138" d="M142 118q6 -6 0 -14l-55 -56q-6 -7 -13 0t-1 14l48 49l-51 51q-6 7 1 14t13 0zM27 7h451v-6h-451v6zM29 265h448v-6h-448v6zM28 15h450v-15h-450v15zM29 275h448v-15h-448v15z" />
<glyph unicode="&#x2122;" horiz-adv-x="560" d="M331 558q0 9 14 9l86 -43l86 43q14 0 14 -9v-90q0 -9 -10 -9t-10 9v74l-76 -38h-8l-76 38v-74q0 -9 -10 -9t-10 9v90zM81 548q-9 0 -9 10t9 10h180q9 0 9 -10t-9 -10h-80v-80q0 -9 -10 -9t-10 9v80h-80zM31 7h559v-6h-559v6zM33 265h556v-6h-556v6zM32 15h556v-15h-556 v15zM33 275h554v-15h-554v15z" />
<glyph unicode="&#x2202;" horiz-adv-x="664" />
<glyph unicode="&#x2206;" horiz-adv-x="392" />
<glyph unicode="&#x220f;" horiz-adv-x="1003" />
<glyph unicode="&#x2215;" d="M587 636q4 7 12 1t4 -13l-445 -655q-4 -7 -12 -1t-4 13zM63 9h451v-6h-451v6zM67 265h448v-6h-448v6zM66 15h541v-15h-541v15zM67 275h539v-15h-539v15z" />
<glyph unicode="&#x2219;" horiz-adv-x="114" d="M134 117q0 -18 -20 -18q-7 0 -13 5t-6 13q0 5 4.5 12.5t14.5 7.5q8 0 14 -6t6 -14zM36 7h429v-6h-429v6zM37 265h426v-6h-426v6zM36 15h431v-15h-431v15zM37 275h429v-15h-429v15z" />
<glyph unicode="&#x221a;" horiz-adv-x="492" />
<glyph unicode="&#x221e;" horiz-adv-x="816" />
<glyph unicode="&#x222b;" horiz-adv-x="439" />
<glyph unicode="&#x2248;" horiz-adv-x="392" />
<glyph unicode="&#x2260;" horiz-adv-x="295" d="M201 220q3 5 8 5q8 0 10.5 -5t-0.5 -10l-38 -68h38q9 0 9 -10t-9 -10h-50l-34 -60h84q9 0 9 -11q0 -10 -9 -10h-95l-40 -71q-3 -5 -8 -5q-8 0 -10.5 5t0.5 10l35 61h-28q-9 0 -9 11q0 10 9 10h40l33 60h-75q-9 0 -9 10t9 10h86z" />
<glyph unicode="&#x2264;" horiz-adv-x="300" d="M173 191l93 -94q6 -6 -1 -13t-13 -1l-100 101v14l98 98q7 7 14 0t0 -14zM214 62h76q9 0 9 -10t-9 -10h-76h-72q-9 0 -9 10t9 10h72zM62 7h451v-6h-451v6zM63 265h448v-6h-448v6zM62 15h453v-15h-453v15zM63 275h451v-15h-451v15z" />
<glyph unicode="&#x2265;" horiz-adv-x="300" d="M278 198v-14l-100 -101q-6 -7 -13 0t-1 14l93 94l-91 91q-6 7 1 14t13 0zM214 62h76q9 0 9 -10t-9 -10h-76h-72q-9 0 -9 10t9 10h72zM62 7h451v-6h-451v6zM63 265h448v-6h-448v6zM62 15h452v-15h-452v15zM63 275h450v-15h-450v15z" />
<glyph unicode="&#x25ca;" horiz-adv-x="708" />
<glyph unicode="&#xe000;" horiz-adv-x="275" d="M0 275h275v-275h-275v275z" />
<glyph unicode="&#xf000;" horiz-adv-x="547" />
<glyph unicode="&#xf001;" horiz-adv-x="602" />
<glyph unicode="&#xf002;" horiz-adv-x="552" />
</font>
</defs>
</svg>
